<svg width="296" height="296" viewBox="0 0 296 296" fill="none" xmlns="http://www.w3.org/2000/svg">
<path d="M121.058 270.008C134.917 261.009 138.584 243.557 138.584 227.757C138.584 225.12 138.967 222.352 137.793 219.998C136.618 217.645 133.748 215.966 131.351 216.996C129.364 217.851 128.434 220.098 127.276 221.943C125.735 224.397 123.495 226.396 120.898 227.633C119.19 228.447 117.097 228.909 115.472 227.94C113.243 226.609 113.081 223.461 113.186 220.841C113.383 215.959 113.578 211.076 113.775 206.195C113.88 203.576 113.978 200.901 113.248 198.387C112.517 195.873 110.795 193.502 108.327 192.719C105.857 191.936 102.727 193.269 102.113 195.815C101.858 196.875 102.038 197.99 101.928 199.075C101.818 200.161 101.271 201.347 100.227 201.614C99.1712 201.886 98.1483 201.108 97.3911 200.315C94.7762 197.578 93.0571 194.108 91.4569 190.66C89.8567 187.213 88.3098 183.687 85.9543 180.718C83.5987 177.749 80.2817 175.348 76.5367 175.008C72.7911 174.668 68.7152 176.848 67.6419 180.5C66.5657 184.162 68.5939 187.982 70.8369 191.051C74.1658 195.605 78.1481 199.668 82.6201 203.071C83.4258 203.686 84.2996 204.35 84.5826 205.33C85.0923 207.096 83.3785 208.775 81.635 209.29C79.6601 209.875 77.5479 209.6 75.4966 209.772C73.4453 209.943 71.2016 210.769 70.3633 212.673C69.1995 215.315 71.3437 218.198 73.485 220.11C77.7728 223.942 82.7131 227.021 88.0221 229.173C89.9254 229.943 91.9329 230.631 93.4413 232.037C94.9497 233.445 95.8075 235.831 94.8064 237.645C93.8042 239.46 91.374 239.97 89.3677 239.526C87.3626 239.084 85.592 237.927 83.6928 237.135C80.1384 235.654 75.48 235.744 73.0682 238.778C71.4834 240.772 71.2531 243.616 71.9369 246.08C72.62 248.544 74.1042 250.697 75.689 252.69C81.2301 259.656 88.433 265.357 96.6878 268.537C104.942 271.716 112.654 272.763 121.058 270.008Z" fill="#EBEBEB"/>
<path d="M119.448 270.522C119.089 264.251 119.388 268.014 117.32 259.977C115.267 251.933 112.286 243.304 108.858 234.385C107.993 232.158 107.138 229.958 106.295 227.79C105.449 225.628 104.611 223.484 103.66 221.437C101.777 217.334 99.6543 213.533 97.5267 209.988C95.3996 206.441 93.2518 203.152 91.2213 200.092C89.183 197.035 87.23 194.222 85.3404 191.733C81.5752 186.74 78.0682 183.08 75.5582 180.665C74.3055 179.454 73.3026 178.546 72.6147 177.94C72.2832 177.651 72.0239 177.425 71.828 177.255C71.6492 177.103 71.5545 177.029 71.5491 177.035C71.5432 177.041 71.6261 177.128 71.7948 177.293C71.9825 177.472 72.2323 177.709 72.549 178.013C73.215 178.642 74.1965 179.572 75.4279 180.803C77.8936 183.256 81.3491 186.939 85.0686 191.944C86.9358 194.438 88.8681 197.256 90.8886 200.318C92.9032 203.386 95.0355 206.677 97.1472 210.222C99.2589 213.764 101.365 217.556 103.231 221.638C104.173 223.675 105.002 225.802 105.849 227.97C106.69 230.136 107.544 232.336 108.408 234.562C111.833 243.474 114.82 252.078 116.89 260.09C118.975 268.097 118.705 264.298 119.107 270.544" fill="#E0E0E0"/>
<path d="M103.523 221.413C103.556 221.42 103.658 221.025 103.817 220.305C103.979 219.585 104.18 218.537 104.408 217.238C104.867 214.642 105.378 211.035 105.927 207.057C106.476 203.076 107.037 199.487 107.534 196.905C107.78 195.613 107.989 194.57 108.142 193.851C108.291 193.13 108.359 192.727 108.327 192.718C108.295 192.71 108.166 193.097 107.96 193.805C107.75 194.512 107.489 195.548 107.202 196.835C106.617 199.409 105.999 203.004 105.451 206.989C104.919 210.916 104.439 214.469 104.071 217.184C103.898 218.41 103.75 219.442 103.633 220.271C103.531 221 103.49 221.407 103.523 221.413Z" fill="#E0E0E0"/>
<path d="M70.0514 213.975C70.0496 214.009 70.5268 214.081 71.3893 214.182C72.2513 214.289 73.4986 214.435 75.0343 214.666C78.1079 215.104 82.3336 215.857 86.9583 216.893C91.583 217.936 95.7276 219.059 98.7024 219.958C100.194 220.396 101.391 220.784 102.219 221.047C103.048 221.313 103.511 221.445 103.523 221.414C103.534 221.381 103.092 221.19 102.281 220.867C101.469 220.549 100.285 220.111 98.8031 219.627C95.846 218.642 91.7008 217.463 87.0619 216.415C82.4236 215.378 78.1725 214.675 75.0775 214.325C73.5312 214.137 72.2744 214.041 71.4041 213.993C70.5357 213.95 70.0544 213.941 70.0514 213.975Z" fill="#E0E0E0"/>
<path d="M116.927 259.343C116.942 259.351 117.025 259.212 117.172 258.94C117.339 258.616 117.542 258.22 117.789 257.741C118.32 256.698 119.049 255.167 119.926 253.265C121.682 249.461 123.943 244.13 126.357 238.214C128.774 232.296 130.981 226.952 132.655 223.117C133.475 221.253 134.15 219.72 134.652 218.58C134.867 218.085 135.043 217.678 135.188 217.342C135.305 217.058 135.36 216.905 135.345 216.896C135.331 216.889 135.247 217.028 135.1 217.3C134.933 217.624 134.73 218.019 134.484 218.498C133.952 219.542 133.223 221.072 132.346 222.974C130.59 226.779 128.329 232.109 125.914 238.028C123.498 243.944 121.29 249.288 119.617 253.123C118.796 254.986 118.122 256.52 117.62 257.659C117.406 258.154 117.229 258.563 117.084 258.898C116.966 259.183 116.912 259.336 116.927 259.343Z" fill="#E0E0E0"/>
<path d="M72.6538 243.398C72.6491 243.414 72.8 243.482 73.0919 243.597C73.4376 243.726 73.8627 243.884 74.3771 244.077C75.5647 244.507 77.1678 245.087 79.1178 245.792C83.121 247.242 88.626 249.308 94.7064 251.599C100.788 253.892 106.318 255.909 110.352 257.276C112.369 257.96 114.006 258.497 115.145 258.845C115.671 259.003 116.105 259.132 116.458 259.239C116.76 259.323 116.922 259.359 116.927 259.343C116.932 259.327 116.781 259.259 116.489 259.144C116.144 259.016 115.719 258.858 115.204 258.666C114.016 258.235 112.414 257.656 110.464 256.95C106.461 255.501 100.955 253.434 94.8733 251.142C88.7929 248.85 83.2642 246.834 79.2303 245.466C77.2134 244.782 75.5765 244.245 74.4369 243.897C73.91 243.739 73.4767 243.609 73.1227 243.504C72.8201 243.419 72.6591 243.382 72.6538 243.398Z" fill="#E0E0E0"/>
<path d="M234.174 136.529C234.174 136.529 227.033 132.753 220.432 149.598C213.832 166.442 211.643 175.997 211.643 175.997C211.643 175.997 209.812 179.571 207.288 177.601C204.763 175.63 200.989 169.709 197.175 171.216C193.219 172.781 192.325 177.454 193.757 184.052C195.188 190.651 197.794 205.222 198.025 206.54C198.251 207.835 197.693 209.829 195.758 208.762C193.824 207.696 182.255 197.107 177.56 202.897C172.865 208.687 179.873 226.413 180.602 228.366C181.331 230.319 181.023 231.213 180.12 231.803C179.216 232.393 175.664 228.467 172.25 225.59C168.836 222.714 164.374 219.977 161.945 223.544C159.516 227.111 159.979 240.883 175.185 261.832L182.868 271.078L194.8 269.235C220.095 263.732 229.611 253.767 230.174 249.488C230.737 245.209 225.586 244.279 221.124 244.152C216.661 244.025 211.397 244.588 211.115 243.546C210.834 242.505 211.201 241.633 213.044 240.661C214.888 239.69 231.921 231.132 232.273 223.686C232.626 216.24 216.944 216.436 214.791 215.943C212.638 215.451 213.549 213.591 214.58 212.776C215.63 211.946 227.278 202.81 232.739 198.842C238.202 194.872 240.646 190.79 238.737 186.989C236.895 183.325 230.136 185.229 226.941 185.018C223.746 184.807 224.759 180.922 224.759 180.922C224.759 180.922 229.489 172.335 235.782 155.374C242.075 138.413 234.025 136.464 234.025 136.464" fill="#EBEBEB"/>
<path d="M183.161 268.474C187.832 256.035 194.428 238.905 201.776 220.006C209.122 201.113 215.756 184.002 220.49 171.588C222.845 165.389 224.754 160.369 226.079 156.881C226.737 155.157 227.249 153.812 227.603 152.883C227.776 152.438 227.911 152.094 228.008 151.846C228.101 151.614 228.157 151.498 228.157 151.498C228.157 151.498 228.125 151.622 228.044 151.859C227.956 152.11 227.832 152.459 227.674 152.908C227.335 153.843 226.845 155.196 226.216 156.931C224.947 160.423 223.074 165.463 220.737 171.681C216.066 184.12 209.47 201.247 202.124 220.14C194.776 239.04 188.141 256.153 183.408 268.567" fill="#E0E0E0"/>
<path d="M202.042 179.607C202.066 179.597 202.201 179.876 202.424 180.388C202.649 180.9 202.952 181.649 203.319 182.578C204.049 184.438 204.991 187.031 205.979 189.912C206.944 192.757 207.816 195.329 208.482 197.297C208.789 198.182 209.046 198.929 209.255 199.529C209.44 200.056 209.531 200.352 209.506 200.361C209.483 200.371 209.346 200.093 209.119 199.582C208.895 199.07 208.591 198.32 208.235 197.387C207.523 195.52 206.615 192.914 205.628 190.034C204.644 187.198 203.753 184.633 203.073 182.671C202.762 181.787 202.5 181.041 202.289 180.442C202.106 179.913 202.018 179.616 202.042 179.607Z" fill="#E0E0E0"/>
<path d="M222.369 195.597C215.84 198.188 210.579 200.367 210.617 200.463C210.655 200.559 215.978 198.536 222.507 195.945C229.036 193.354 234.297 191.176 234.259 191.08C234.221 190.984 228.898 193.006 222.369 195.597Z" fill="#E0E0E0"/>
<path d="M198.034 228.975C198.033 228.949 198.345 228.905 198.913 228.848C199.556 228.787 200.36 228.711 201.314 228.62C203.341 228.425 206.139 228.144 209.216 227.721C212.294 227.304 215.066 226.831 217.07 226.472C218.014 226.304 218.809 226.162 219.446 226.049C220.007 225.952 220.32 225.91 220.326 225.935C220.331 225.96 220.028 226.05 219.475 226.191C218.922 226.331 218.119 226.521 217.12 226.731C215.126 227.157 212.352 227.674 209.265 228.092C206.181 228.516 203.37 228.756 201.335 228.884C200.317 228.944 199.493 228.983 198.922 228.993C198.351 229.005 198.036 229 198.034 228.975Z" fill="#E0E0E0"/>
<path d="M186.118 211.816C186.138 211.802 186.327 212.025 186.652 212.44C187.017 212.924 187.466 213.519 187.995 214.221C189.117 215.734 190.645 217.838 192.314 220.177C193.982 222.516 195.477 224.646 196.543 226.198C197.034 226.926 197.45 227.544 197.79 228.047C198.077 228.488 198.226 228.74 198.205 228.755C198.184 228.77 197.996 228.547 197.671 228.131C197.306 227.647 196.857 227.053 196.328 226.351C195.206 224.837 193.678 222.733 192.009 220.393C190.34 218.055 188.847 215.926 187.78 214.374C187.289 213.645 186.872 213.028 186.533 212.524C186.246 212.083 186.097 211.832 186.118 211.816Z" fill="#E0E0E0"/>
<path d="M171.805 235.573C171.826 235.558 172.065 235.845 172.48 236.377C172.931 236.97 173.513 237.735 174.211 238.652C175.658 240.583 177.638 243.266 179.805 246.242C181.973 249.22 183.918 251.927 185.312 253.898C185.971 254.844 186.52 255.632 186.946 256.243C187.326 256.802 187.525 257.118 187.504 257.133C187.483 257.148 187.244 256.861 186.829 256.329C186.377 255.736 185.796 254.971 185.098 254.054C183.651 252.123 181.671 249.44 179.503 246.463C177.336 243.487 175.391 240.779 173.997 238.808C173.338 237.862 172.789 237.074 172.362 236.463C171.984 235.904 171.784 235.588 171.805 235.573Z" fill="#E0E0E0"/>
<path d="M187.274 256.512C187.271 256.486 187.666 256.42 188.383 256.322C189.165 256.22 190.186 256.086 191.417 255.925C193.978 255.585 197.515 255.103 201.403 254.462C205.293 253.825 208.799 253.156 211.333 252.654C212.552 252.415 213.562 252.215 214.336 252.062C215.046 251.926 215.441 251.861 215.447 251.887C215.453 251.911 215.068 252.023 214.368 252.204C213.668 252.385 212.65 252.631 211.388 252.912C208.865 253.481 205.36 254.192 201.463 254.829C197.568 255.472 194.02 255.913 191.448 256.186C190.161 256.319 189.119 256.415 188.397 256.466C187.676 256.52 187.276 256.537 187.274 256.512Z" fill="#E0E0E0"/>
<path d="M221.671 93.7692C221.671 93.7692 218.27 98.214 211.648 96.9512C207.549 96.1686 199.426 95.7862 198.376 98.7977L199.601 107.936C199.601 107.936 204.977 106.534 210.467 107.848C215.862 109.139 223.649 105.317 223.649 105.317L221.671 93.7692Z" fill="#EBEBEB"/>
<path d="M210.635 106.535C207.642 106.255 206.109 103.357 206.719 101.143C207.328 98.9279 210.629 97.9055 212.844 98.5147C215.059 99.1251 216.359 101.415 215.75 103.63C215.14 105.844 212.923 106.749 210.635 106.535Z" fill="#F5F5F5"/>
<path d="M209.98 104.906C209.993 104.837 210.168 104.812 210.463 104.799C210.754 104.782 211.175 104.779 211.623 104.651C211.841 104.588 212.068 104.483 212.256 104.331C212.441 104.185 212.584 103.974 212.603 103.786C212.636 103.583 212.554 103.335 212.403 103.202C212.273 103.071 212.009 103.005 211.629 102.999C211.442 102.994 211.236 102.998 211.013 102.983C210.79 102.967 210.542 102.934 210.291 102.832C210.164 102.779 210.043 102.709 209.932 102.623C209.82 102.536 209.717 102.427 209.64 102.307C209.482 102.068 209.416 101.797 209.417 101.543C209.418 101.287 209.483 101.043 209.604 100.832C209.73 100.617 209.885 100.467 210.052 100.349C210.386 100.114 210.731 100.028 211.033 99.9906C211.341 99.9556 211.603 99.9805 211.828 100.017C212.05 100.054 212.235 100.107 212.379 100.156C212.673 100.259 212.821 100.353 212.81 100.419C212.799 100.487 212.625 100.522 212.327 100.538C212.034 100.561 211.603 100.553 211.164 100.677C210.947 100.742 210.721 100.847 210.556 100.996C210.388 101.152 210.313 101.318 210.329 101.522C210.338 101.619 210.371 101.709 210.423 101.774C210.448 101.809 210.478 101.834 210.514 101.86C210.554 101.887 210.598 101.909 210.65 101.929C210.86 102.013 211.223 102.002 211.657 102.009C211.876 102.016 212.114 102.031 212.368 102.101C212.496 102.138 212.622 102.187 212.745 102.254C212.87 102.323 212.989 102.408 213.084 102.51C213.483 102.919 213.606 103.473 213.498 103.958C213.384 104.469 213.045 104.801 212.721 105.005C212.394 105.211 212.058 105.301 211.754 105.339C211.149 105.4 210.698 105.277 210.405 105.178C210.111 105.074 209.965 104.971 209.98 104.906Z" fill="#EBEBEB"/>
<path d="M211.631 102.632C211.849 104.473 212.134 105.952 212.269 105.936C212.404 105.92 212.338 104.415 212.121 102.574C211.903 100.733 211.618 99.2542 211.483 99.2702C211.348 99.2861 211.414 100.791 211.631 102.632Z" fill="#EBEBEB"/>
<path d="M210.898 102.873C211.095 104.544 211.364 105.885 211.5 105.869C211.637 105.853 211.588 104.486 211.391 102.815C211.194 101.144 210.925 99.8018 210.789 99.8178C210.653 99.8338 210.702 101.201 210.898 102.873Z" fill="#EBEBEB"/>
<g opacity="0.5">
<path opacity="0.5" d="M200.371 106.961L199.288 98.6432L199.358 98.5923C202.595 96.2101 208.57 97.2105 212.524 97.8724C213.204 97.9866 213.848 98.0944 214.403 98.1719C218.118 98.6953 220.879 95.7702 220.953 95.4339L221.245 95.4209L222.559 104.376L222.482 104.427C217.764 107.558 212.153 107.526 208.781 106.547C205.632 105.634 200.581 106.907 200.53 106.921L200.371 106.961ZM199.603 98.7782L200.62 106.596C201.529 106.379 205.922 105.411 208.863 106.265C212.157 107.22 217.626 107.257 222.243 104.233L221.015 95.8714C220.808 96.1248 220.523 96.3823 220.44 96.4563C219.786 97.0359 217.418 98.893 214.363 98.4632C213.804 98.3839 213.159 98.2761 212.475 98.1619C208.599 97.5136 202.756 96.5351 199.603 98.7782Z" fill="#FAFAFA"/>
</g>
<path d="M175.003 43.3433C175.003 43.3433 169.699 45.1305 164.912 40.3833C161.95 37.4446 155.427 32.5896 152.873 34.5012L148.784 42.7649C148.784 42.7649 154.026 44.6048 157.847 48.7613C161.601 52.8466 170.194 54.0265 170.194 54.0265L175.003 43.3433Z" fill="#EBEBEB"/>
<path d="M158.719 47.7673C156.392 45.8628 156.74 42.6033 158.483 41.1073C160.225 39.6107 163.535 40.6071 165.031 42.3493C166.527 44.0933 166.326 46.7189 164.584 48.2154C162.841 49.7114 160.496 49.223 158.719 47.7673Z" fill="#F5F5F5"/>
<path d="M159.084 46.0499C159.135 46.0002 159.294 46.0777 159.545 46.231C159.797 46.3796 160.147 46.6117 160.591 46.7567C160.807 46.826 161.053 46.8663 161.294 46.8449C161.528 46.8272 161.765 46.7325 161.886 46.5862C162.026 46.4371 162.097 46.1855 162.047 45.9901C162.011 45.8089 161.829 45.6065 161.517 45.3898C161.365 45.2809 161.192 45.1696 161.016 45.0322C160.839 44.8949 160.652 44.7291 160.501 44.5042C160.425 44.3893 160.364 44.2638 160.319 44.1306C160.275 43.9951 160.251 43.8482 160.254 43.7056C160.257 43.4196 160.353 43.1574 160.495 42.9466C160.639 42.7353 160.83 42.5701 161.048 42.4624C161.273 42.3546 161.485 42.3161 161.69 42.3114C162.098 42.3037 162.432 42.4251 162.703 42.5624C162.979 42.7051 163.182 42.8726 163.348 43.0289C163.511 43.1834 163.635 43.3302 163.728 43.4522C163.913 43.7014 163.985 43.8619 163.938 43.9104C163.891 43.9607 163.727 43.8926 163.471 43.7387C163.214 43.5943 162.862 43.3468 162.428 43.2047C162.211 43.1378 161.966 43.0976 161.746 43.1302C161.519 43.1651 161.363 43.2616 161.264 43.4392C161.217 43.525 161.194 43.618 161.201 43.7008C161.203 43.7441 161.213 43.7813 161.229 43.8228C161.247 43.8684 161.27 43.911 161.303 43.9572C161.431 44.1437 161.738 44.3372 162.094 44.5859C162.272 44.7132 162.461 44.8594 162.632 45.0595C162.718 45.1607 162.795 45.2726 162.86 45.3969C162.924 45.5236 162.975 45.6609 162.998 45.7989C163.1 46.3601 162.892 46.8893 162.532 47.2309C162.151 47.5903 161.685 47.6773 161.303 47.6655C160.917 47.653 160.588 47.5411 160.314 47.402C159.778 47.1149 159.473 46.7609 159.285 46.5146C159.1 46.2624 159.037 46.0961 159.084 46.0499Z" fill="#EBEBEB"/>
<path d="M161.725 45.0991C160.877 46.7472 160.287 48.1338 160.408 48.196C160.529 48.2582 161.315 46.9726 162.163 45.3245C163.011 43.6764 163.601 42.2898 163.48 42.2276C163.359 42.1654 162.573 43.451 161.725 45.0991Z" fill="#EBEBEB"/>
<path d="M160.999 44.8776C160.229 46.3733 159.703 47.6366 159.824 47.6992C159.946 47.7618 160.669 46.6 161.439 45.1042C162.21 43.6085 162.736 42.3452 162.614 42.2826C162.493 42.2201 161.77 43.3819 160.999 44.8776Z" fill="#EBEBEB"/>
<g opacity="0.5">
<path opacity="0.5" d="M149.967 42.3872L153.716 34.8836L153.803 34.8806C157.818 34.7125 162.215 38.8802 165.125 41.6383C165.626 42.1131 166.099 42.5624 166.516 42.936C169.305 45.4455 173.23 44.5622 173.48 44.3248L173.728 44.477L169.816 52.6383H169.724C164.063 52.5998 159.426 49.4379 157.176 46.7425C155.074 44.2259 150.174 42.4618 150.125 42.444L149.967 42.3872ZM153.901 35.1707L150.377 42.2238C151.252 42.5512 155.437 44.2023 157.399 46.5531C159.597 49.1857 164.112 52.2712 169.631 52.3429L173.284 44.7215C172.97 44.8156 172.59 44.87 172.48 44.8854C171.615 45.0009 168.612 45.2181 166.319 43.155C165.9 42.7773 165.425 42.3274 164.922 41.8508C162.069 39.1472 157.77 35.0719 153.901 35.1707Z" fill="#FAFAFA"/>
</g>
<path d="M100.229 83.5868C100.229 83.5868 94.6453 83.2009 92.0482 76.9801C90.4415 73.1292 86.2821 66.1418 83.1907 66.9268L76.2418 72.9871C76.2418 72.9871 80.3758 76.6989 82.3075 82.0032C84.2054 87.217 91.6871 91.6049 91.6871 91.6049L100.229 83.5868Z" fill="#F5F5F5"/>
<path d="M83.4944 81.4195C82.0777 78.768 83.6501 75.892 85.834 75.1793C88.0173 74.4665 90.6907 76.6575 91.4035 78.8402C92.1157 81.0247 90.9222 83.3719 88.7389 84.0847C86.5544 84.7975 84.5766 83.4459 83.4944 81.4195Z" fill="#EBEBEB"/>
<path d="M84.4919 79.9739C84.557 79.9472 84.6743 80.0804 84.8477 80.3184C85.0235 80.5522 85.2574 80.9009 85.6114 81.2052C85.7843 81.3526 85.9962 81.4835 86.2271 81.5569C86.4509 81.6309 86.7054 81.6338 86.8735 81.5456C87.06 81.4616 87.2222 81.2567 87.2512 81.0566C87.2885 80.8755 87.1974 80.6191 86.9931 80.2989C86.8943 80.1396 86.7776 79.9709 86.6669 79.7761C86.5568 79.5814 86.4479 79.357 86.3946 79.0906C86.3697 78.9556 86.3603 78.8159 86.3709 78.6756C86.3822 78.5335 86.4159 78.3891 86.4734 78.2582C86.5852 77.9954 86.7753 77.79 86.9872 77.6503C87.2015 77.51 87.4419 77.4306 87.684 77.4158C87.9326 77.4022 88.1434 77.4484 88.3346 77.523C88.7141 77.6716 88.9751 77.9125 89.1735 78.1434C89.3724 78.3808 89.4961 78.6134 89.5896 78.8218C89.6814 79.0278 89.7394 79.2108 89.7773 79.3582C89.8531 79.6601 89.8572 79.8353 89.7962 79.8626C89.7335 79.8916 89.608 79.7649 89.4298 79.5245C89.2492 79.2931 89.0184 78.929 88.672 78.6312C88.4986 78.4862 88.2872 78.3553 88.0706 78.3003C87.848 78.2458 87.6674 78.2748 87.507 78.4009C87.4312 78.4625 87.3738 78.5394 87.3483 78.6182C87.3335 78.659 87.3288 78.6969 87.3276 78.7413C87.3264 78.7899 87.3318 78.839 87.3448 78.8935C87.391 79.1149 87.5999 79.4115 87.8332 79.7773C87.9486 79.9632 88.067 80.171 88.1487 80.4214C88.1884 80.5475 88.2168 80.6807 88.2292 80.8204C88.2399 80.9619 88.234 81.1087 88.202 81.2449C88.0812 81.8025 87.6858 82.211 87.2222 82.3886C86.7326 82.5745 86.2691 82.4762 85.921 82.3182C85.5688 82.1577 85.3077 81.928 85.1088 81.6948C84.724 81.2242 84.5784 80.7802 84.499 80.4806C84.4238 80.1769 84.4298 79.9981 84.4919 79.9739Z" fill="#F5F5F5"/>
<path d="M87.2937 80.1049C85.8778 81.3012 84.8012 82.3551 84.889 82.459C84.9768 82.5629 86.1957 81.6774 87.6116 80.4812C89.0275 79.2849 90.1041 78.2309 90.0163 78.127C89.9286 78.0231 88.7096 78.9087 87.2937 80.1049Z" fill="#F5F5F5"/>
<path d="M86.7056 79.6272C85.42 80.7126 84.4493 81.6771 84.5375 81.7815C84.6256 81.8859 85.7393 81.0907 87.0249 80.0053C88.3105 78.92 89.2812 77.9554 89.193 77.851C89.1049 77.7466 87.9912 78.5418 86.7056 79.6272Z" fill="#F5F5F5"/>
<g opacity="0.5">
<path opacity="0.5" d="M77.4791 73.0919L83.8218 67.6028L83.9023 67.633C87.6746 69.0201 90.1343 74.5559 91.7623 78.2192C92.0423 78.8503 92.3075 79.447 92.5485 79.952C94.1605 83.34 98.1234 84.0314 98.4448 83.9077L98.6165 84.1439L91.8706 90.1776L91.7848 90.1415C86.5717 87.9321 83.5045 83.2328 82.4614 79.8797C81.487 76.7493 77.6401 73.2387 77.6011 73.2038L77.4791 73.0919ZM83.8822 67.9385L77.9213 73.0978C78.6033 73.736 81.8333 76.8671 82.7426 79.7915C83.762 83.0665 86.7469 87.6486 91.8144 89.8336L98.1133 84.199C97.7877 84.1652 97.4153 84.0699 97.3088 84.0415C96.4646 83.816 93.6094 82.8634 92.2833 80.0781C92.0417 79.5689 91.7759 78.9704 91.4941 78.3376C89.8981 74.7471 87.4928 69.3327 83.8822 67.9385Z" fill="#EBEBEB"/>
</g>
<path d="M60.0341 135.963C60.0341 135.963 58.9335 139.671 54.3473 140.488C51.5081 140.992 46.17 142.746 46.234 144.949L49.2763 150.548C49.2763 150.548 52.4014 148.318 56.2696 147.814C60.0714 147.318 64.1568 142.931 64.1568 142.931L60.0341 135.963Z" fill="#F5F5F5"/>
<path d="M56.0546 146.924C54.0531 147.481 52.3499 145.988 52.1978 144.408C52.0456 142.828 53.9252 141.354 55.5047 141.202C57.0853 141.051 58.4889 142.208 58.6411 143.789C58.7932 145.369 57.5844 146.499 56.0546 146.924Z" fill="#EBEBEB"/>
<path d="M55.2293 146.034C55.221 145.986 55.3288 145.927 55.5153 145.846C55.6994 145.762 55.9699 145.657 56.2286 145.464C56.3535 145.37 56.4743 145.247 56.5584 145.102C56.6418 144.962 56.6821 144.791 56.6478 144.665C56.6188 144.526 56.5051 144.386 56.3749 144.337C56.2582 144.284 56.0712 144.307 55.8249 144.397C55.7029 144.44 55.5715 144.493 55.4235 144.538C55.2755 144.583 55.108 144.623 54.9203 144.618C54.8256 144.616 54.7297 144.6 54.6367 144.572C54.5426 144.543 54.4503 144.498 54.3703 144.44C54.2099 144.324 54.0998 144.166 54.0376 144.002C53.9755 143.836 53.9577 143.662 53.9838 143.496C54.0122 143.326 54.0749 143.191 54.1543 143.073C54.3117 142.84 54.513 142.7 54.6989 142.601C54.8889 142.502 55.0642 142.454 55.2187 142.423C55.3714 142.391 55.5034 142.38 55.6088 142.377C55.8237 142.371 55.9427 142.394 55.9516 142.439C55.9616 142.486 55.8574 142.552 55.6686 142.636C55.4851 142.723 55.2051 142.824 54.9523 143.013C54.8285 143.108 54.7078 143.231 54.6385 143.369C54.5681 143.511 54.5604 143.637 54.6214 143.764C54.651 143.825 54.6948 143.875 54.7439 143.904C54.7688 143.921 54.7942 143.929 54.8244 143.937C54.857 143.945 54.8907 143.948 54.9292 143.948C55.0855 143.951 55.317 143.854 55.5993 143.752C55.742 143.702 55.8995 143.653 56.0806 143.636C56.1718 143.628 56.2659 143.629 56.3618 143.642C56.4589 143.656 56.5572 143.682 56.6442 143.724C57.0018 143.889 57.2185 144.217 57.2682 144.557C57.3197 144.915 57.1835 145.212 57.0249 145.424C56.8644 145.637 56.6697 145.779 56.482 145.878C56.1067 146.067 55.7852 146.098 55.5715 146.107C55.356 146.11 55.2364 146.08 55.2293 146.034Z" fill="#F5F5F5"/>
<path d="M55.7471 144.159C56.341 145.294 56.8898 146.179 56.973 146.135C57.0561 146.092 56.6421 145.136 56.0482 144.001C55.4543 142.866 54.9055 141.982 54.8224 142.025C54.7392 142.069 55.1533 143.024 55.7471 144.159Z" fill="#F5F5F5"/>
<path d="M55.3273 144.481C55.8658 145.511 56.3703 146.311 56.454 146.267C56.5377 146.223 56.169 145.353 55.6305 144.322C55.092 143.292 54.5875 142.492 54.5038 142.536C54.42 142.58 54.7887 143.45 55.3273 144.481Z" fill="#F5F5F5"/>
<g opacity="0.5">
<path opacity="0.5" d="M49.5326 149.728L46.7845 144.624L46.8171 144.575C48.3202 142.239 52.4239 141.413 55.1394 140.866C55.6077 140.772 56.0493 140.683 56.4265 140.596C58.9543 140.019 60.0163 137.451 59.9814 137.215L60.1667 137.135L63.2214 142.592L63.1841 142.644C60.9103 145.827 57.2789 147.19 54.8606 147.388C52.6027 147.574 49.6557 149.642 49.6267 149.662L49.5326 149.728ZM47.0202 144.634L49.6031 149.431C50.1359 149.067 52.7341 147.359 54.8429 147.187C57.2049 146.992 60.7445 145.668 62.9805 142.578L60.1282 137.483C60.0566 137.697 59.9358 137.934 59.9009 138.002C59.6215 138.537 58.55 140.32 56.472 140.795C56.092 140.881 55.6486 140.971 55.1797 141.065C52.5175 141.602 48.5037 142.409 47.0202 144.634Z" fill="#EBEBEB"/>
</g>
<path d="M276.785 85.0213C276.785 85.0213 273.727 87.3881 269.527 85.3711C266.928 84.122 261.57 82.4283 260.336 84.2534L259.535 90.5748C259.535 90.5748 263.374 90.5902 266.808 92.4402C270.184 94.2588 276.062 93.0843 276.062 93.0843L276.785 85.0213Z" fill="#F5F5F5"/>
<path d="M267.154 91.5936C265.204 90.8761 264.694 88.6697 265.492 87.2981C266.292 85.9264 268.679 85.8287 270.049 86.6274C271.42 87.4277 271.884 89.1872 271.084 90.5588C270.285 91.9305 268.644 92.1424 267.154 91.5936Z" fill="#EBEBEB"/>
<path d="M267.004 90.3895C267.026 90.3457 267.147 90.3605 267.346 90.4037C267.544 90.4434 267.826 90.5162 268.148 90.5109C268.304 90.5073 268.474 90.4771 268.627 90.4096C268.777 90.3451 268.91 90.2297 268.956 90.1071C269.014 89.9775 269.003 89.7975 268.926 89.6815C268.862 89.5708 268.697 89.4802 268.445 89.4092C268.32 89.3725 268.183 89.3387 268.036 89.289C267.89 89.2393 267.73 89.1736 267.58 89.0605C267.505 89.0025 267.437 88.935 267.378 88.8574C267.318 88.7793 267.269 88.6887 267.239 88.5952C267.176 88.4081 267.179 88.2145 267.225 88.0446C267.271 87.8741 267.359 87.7232 267.477 87.6036C267.599 87.4822 267.729 87.4094 267.862 87.3597C268.126 87.262 268.371 87.2661 268.58 87.294C268.791 87.3253 268.962 87.3887 269.106 87.4532C269.248 87.5171 269.362 87.5852 269.449 87.6432C269.628 87.764 269.71 87.8528 269.691 87.8948C269.672 87.9386 269.549 87.9309 269.346 87.8889C269.147 87.8522 268.861 87.7711 268.545 87.7764C268.389 87.7812 268.219 87.8108 268.082 87.8818C267.943 87.9558 267.863 88.0541 267.838 88.1926C267.827 88.2589 267.833 88.3252 267.856 88.3779C267.867 88.4057 267.882 88.4276 267.902 88.4513C267.923 88.4768 267.949 88.4999 267.981 88.5218C268.106 88.6147 268.35 88.6715 268.639 88.7538C268.783 88.797 268.94 88.8491 269.097 88.9409C269.176 88.9877 269.252 89.0433 269.322 89.1102C269.393 89.1783 269.457 89.2564 269.503 89.3417C269.697 89.685 269.681 90.0775 269.523 90.3818C269.356 90.7027 269.071 90.8649 268.82 90.9436C268.564 91.023 268.323 91.0241 268.114 90.9951C267.699 90.9288 267.42 90.7666 267.241 90.6488C267.062 90.5251 266.984 90.4304 267.004 90.3895Z" fill="#F5F5F5"/>
<path d="M268.516 89.1741C268.335 90.4419 268.264 91.4805 268.357 91.4937C268.45 91.507 268.672 90.4899 268.852 89.222C269.033 87.9542 269.105 86.9156 269.012 86.9024C268.919 86.8891 268.697 87.9062 268.516 89.1741Z" fill="#F5F5F5"/>
<path d="M267.981 89.1797C267.816 90.3306 267.758 91.2744 267.851 91.2877C267.944 91.301 268.153 90.3789 268.318 89.228C268.483 88.0771 268.541 87.1333 268.447 87.1199C268.354 87.1066 268.145 88.0288 267.981 89.1797Z" fill="#F5F5F5"/>
<g opacity="0.5">
<path opacity="0.5" d="M260.222 90.0604L260.973 84.3126L261.029 84.2907C263.613 83.2725 267.426 84.9994 269.95 86.1413C270.384 86.3385 270.796 86.5243 271.152 86.6741C273.541 87.6817 275.903 86.2171 276.012 86.0058L276.209 86.049L275.501 92.2632L275.44 92.2839C271.735 93.5395 267.992 92.5243 265.913 91.2728C263.972 90.1048 260.373 90.0615 260.337 90.0615L260.222 90.0604ZM261.158 84.4589L260.453 89.8609C261.099 89.8768 264.205 90.0083 266.018 91.0993C268.049 92.3212 271.695 93.314 275.314 92.1122L275.975 86.3095C275.791 86.4421 275.556 86.5634 275.488 86.5984C274.948 86.8695 273.037 87.6906 271.073 86.8624C270.714 86.7108 270.302 86.5243 269.866 86.3272C267.392 85.2071 263.662 83.5188 261.158 84.4589Z" fill="#EBEBEB"/>
</g>
<path d="M282.047 272.216C282.047 272.302 222.027 272.371 148.007 272.371C73.9597 272.371 13.9534 272.302 13.9534 272.216C13.9534 272.131 73.9603 272.062 148.007 272.062C222.027 272.062 282.047 272.131 282.047 272.216Z" fill="#263238"/>
<path d="M134.499 142.288C133.66 140.313 132.816 138.323 132.381 136.223C131.946 134.122 131.943 131.879 132.755 129.893C133.567 127.908 135.284 126.226 137.389 125.811C138.689 125.554 140.077 125.773 141.319 125.315C142.757 124.784 143.72 123.464 144.839 122.416C146.587 120.78 148.879 119.736 151.261 119.489C152.511 119.359 153.819 119.454 154.942 120.02C156.064 120.586 156.966 121.686 157.056 122.939C158.523 122.448 160.01 121.951 161.554 121.856C163.098 121.761 164.731 122.114 165.888 123.14C167.045 124.166 167.586 125.954 166.89 127.335C168.154 126.605 169.927 127.173 170.701 128.408C171.476 129.645 171.302 131.34 170.458 132.53C169.613 133.72 167.652 134.781 166.206 134.977C164.76 135.174 163.079 135.315 161.696 134.849" fill="#263238"/>
<path d="M138.032 183.991L158.756 182.336C158.885 179.916 158.712 170.555 158.712 170.555C158.712 170.555 167.335 169.214 167.442 160.593C167.548 151.972 166.054 132.175 166.054 132.175C156.074 127.886 144.553 129.334 135.946 135.959L134.668 136.943L138.032 183.991Z" fill="#B78876"/>
<path d="M158.727 170.43C158.727 170.43 153.278 170.874 147.487 167.236C147.487 167.236 150.144 173.441 158.747 172.664L158.727 170.43Z" fill="#AA6550"/>
<path d="M135.73 145.872C135.583 145.809 129.807 144.121 129.995 150.015C130.183 155.909 136.062 154.504 136.067 154.335C136.071 154.166 135.73 145.872 135.73 145.872Z" fill="#B78876"/>
<path d="M134.195 152.159C134.169 152.142 134.095 152.235 133.924 152.32C133.757 152.403 133.468 152.465 133.157 152.36C132.527 152.151 131.971 151.18 131.909 150.118C131.876 149.582 131.972 149.068 132.149 148.639C132.316 148.202 132.585 147.892 132.896 147.826C133.206 147.744 133.434 147.925 133.511 148.088C133.596 148.25 133.562 148.369 133.594 148.378C133.611 148.392 133.717 148.276 133.662 148.034C133.634 147.918 133.561 147.78 133.418 147.672C133.273 147.561 133.063 147.51 132.845 147.54C132.392 147.586 131.996 148.017 131.802 148.488C131.583 148.962 131.463 149.54 131.499 150.142C131.574 151.329 132.218 152.421 133.078 152.64C133.495 152.735 133.838 152.599 134.012 152.455C134.189 152.302 134.216 152.169 134.195 152.159Z" fill="#AA6550"/>
<path d="M163.227 145.536C163.25 146.186 162.718 146.741 162.04 146.778C161.362 146.814 160.794 146.318 160.77 145.668C160.748 145.018 161.279 144.461 161.956 144.424C162.635 144.388 163.204 144.885 163.227 145.536Z" fill="#263238"/>
<path d="M164.422 144.302C164.269 144.463 163.337 143.773 162.012 143.776C160.689 143.761 159.716 144.442 159.572 144.28C159.502 144.208 159.658 143.918 160.081 143.61C160.497 143.303 161.208 143.005 162.034 143.008C162.859 143.013 163.553 143.317 163.952 143.627C164.359 143.94 164.497 144.231 164.422 144.302Z" fill="#263238"/>
<path d="M150.203 145.536C150.227 146.186 149.695 146.741 149.017 146.778C148.339 146.814 147.77 146.318 147.747 145.668C147.724 145.018 148.256 144.461 148.933 144.424C149.612 144.388 150.18 144.885 150.203 145.536Z" fill="#263238"/>
<path d="M151.399 144.55C151.247 144.71 150.312 144.02 148.989 144.024C147.666 144.008 146.693 144.69 146.549 144.527C146.479 144.456 146.632 144.166 147.058 143.858C147.474 143.551 148.185 143.252 149.01 143.256C149.836 143.26 150.53 143.564 150.929 143.875C151.335 144.188 151.474 144.478 151.399 144.55Z" fill="#263238"/>
<path d="M156.207 154.375C156.201 154.299 157.025 154.158 158.359 153.987C158.697 153.952 159.018 153.885 159.075 153.654C159.155 153.409 159.014 153.044 158.849 152.651C158.531 151.833 158.198 150.974 157.849 150.075C156.459 146.407 155.454 143.391 155.602 143.336C155.75 143.282 156.996 146.21 158.385 149.878C158.72 150.782 159.04 151.644 159.344 152.47C159.472 152.854 159.693 153.291 159.52 153.797C159.429 154.05 159.181 154.234 158.964 154.292C158.747 154.358 158.557 154.362 158.389 154.372C157.046 154.445 156.213 154.45 156.207 154.375Z" fill="#263238"/>
<path d="M152.309 155.292C152.523 155.279 152.526 156.717 153.757 157.738C154.986 158.762 156.519 158.601 156.531 158.802C156.55 158.892 156.189 159.082 155.542 159.099C154.907 159.121 153.98 158.916 153.227 158.292C152.476 157.666 152.154 156.831 152.105 156.241C152.049 155.64 152.21 155.283 152.309 155.292Z" fill="#263238"/>
<path d="M163.935 141.97C163.702 142.271 162.789 141.959 161.692 141.944C160.594 141.891 159.665 142.147 159.451 141.832C159.357 141.679 159.503 141.377 159.909 141.093C160.309 140.809 160.979 140.576 161.733 140.599C162.487 140.624 163.14 140.896 163.522 141.204C163.91 141.514 164.038 141.824 163.935 141.97Z" fill="#263238"/>
<path d="M149.676 139.761C149.527 139.922 149.188 139.857 148.747 139.771C148.304 139.679 147.742 139.576 147.111 139.552C146.48 139.535 145.912 139.601 145.464 139.663C145.019 139.72 144.675 139.763 144.537 139.592C144.408 139.436 144.536 139.056 144.997 138.678C145.45 138.3 146.253 137.982 147.161 138.012C148.069 138.042 148.85 138.412 149.276 138.818C149.713 139.226 149.815 139.613 149.676 139.761Z" fill="#263238"/>
<path d="M166.482 134.822C166.482 134.822 160.711 136.763 153.905 134.183C149.439 132.491 144.378 131.954 143.372 132.919C142.366 133.885 142.578 138.289 138.496 139.993C138.496 139.993 139.629 148.323 136.266 148.361C132.903 148.4 133.678 135.243 133.678 135.243L141.43 130.438L150.157 127.858L158.493 127.017L166.482 128.616V134.822H166.482Z" fill="#263238"/>
<path d="M188.749 203.81C188.749 203.81 203.763 219.264 209.054 216.97C223.447 210.729 235.141 197.588 239.162 192.867C239.333 191.982 239.506 190.935 239.654 189.693C239.782 188.625 239.715 187.539 239.478 186.482C239.191 185.201 238.739 183.511 238.208 182.656C237.552 181.598 238.498 180.321 239.536 180.755C240.573 181.192 243.09 183.986 243.615 187.933C243.615 187.933 244.059 189.546 245.851 188.955C248.457 188.097 257.306 184.661 258.882 184.296C260.286 183.97 261.961 184.051 261.026 185.075C260.092 186.099 253.563 189.918 253.563 189.918C253.563 189.918 262.022 184.745 262.718 186.011C263.2 186.886 261.417 188.904 255.482 191.768C255.482 191.768 262.483 187.559 263.674 187.697C266.365 188.007 257.99 193.156 257.99 193.156C263.888 189.601 263.611 189.365 264.25 190.053C264.729 190.569 263.696 191.75 260.788 194.12C258.429 196.042 256.37 198.504 252.937 201.626C252.937 201.626 217.406 251.025 195.065 235.863C183.023 227.69 179.713 223.568 172.873 217.374" fill="#B78876"/>
<path d="M254.49 195.378C254.575 195.528 256.43 194.512 258.632 193.109C260.835 191.706 262.538 190.453 262.439 190.312C262.339 190.171 260.484 191.186 258.296 192.581C256.108 193.975 254.404 195.228 254.49 195.378Z" fill="#AA6550"/>
<path d="M257.126 190.54C254.697 191.89 252.796 193.106 252.88 193.257C252.964 193.408 255.001 192.437 257.43 191.088C259.859 189.739 261.76 188.522 261.676 188.371C261.592 188.22 259.555 189.191 257.126 190.54Z" fill="#AA6550"/>
<path d="M255.272 188.492C252.957 189.738 251.147 190.872 251.229 191.024C251.311 191.176 253.254 190.29 255.569 189.044C257.884 187.798 259.695 186.665 259.613 186.512C259.531 186.36 257.588 187.247 255.272 188.492Z" fill="#AA6550"/>
<path d="M99.8669 216.069C99.8669 216.069 92.3011 236.244 86.5345 236.261C70.8471 236.308 54.8678 228.951 49.2923 226.236C48.7814 225.493 48.2031 224.604 47.5702 223.524C47.0256 222.598 46.6514 221.576 46.4454 220.513C46.1956 219.223 45.9327 217.494 46.076 216.498C46.2536 215.267 44.8754 214.474 44.0987 215.288C43.3226 216.105 42.1356 219.672 43.2356 223.5C43.2356 223.5 43.4747 225.155 41.5957 225.332C38.8643 225.589 29.3798 225.985 27.7891 226.281C26.3725 226.545 24.8706 227.29 26.1368 227.855C27.0574 228.265 31.2754 228.844 33.5126 229.129C30.7947 228.817 25.0618 228.292 24.9617 229.389C24.9031 230.031 25.9095 230.73 28.3935 231.212C26.7016 231.099 25.1731 231.077 24.761 231.316C22.4203 232.68 32.1557 234.042 32.1557 234.042C25.327 233.147 25.4868 232.82 25.1766 233.706C24.9446 234.37 26.3636 235.039 29.9777 236.046C32.9093 236.862 35.7823 238.293 40.1779 239.779C40.1779 239.779 92.5214 270.809 106.918 247.968C114.678 235.655 116.059 230.553 119.846 222.137L99.8669 216.069Z" fill="#B78876"/>
<path d="M36.2541 234.677C36.2357 234.849 34.1288 234.661 31.5495 234.257C28.9689 233.853 26.9064 233.388 26.9407 233.219C26.9757 233.05 29.082 233.237 31.6459 233.639C34.2093 234.04 36.2724 234.505 36.2541 234.677Z" fill="#AA6550"/>
<path d="M31.8248 231.927C34.5907 232.19 36.8462 232.264 36.8626 232.092C36.879 231.92 34.6501 231.566 31.8842 231.303C29.1182 231.04 26.8627 230.966 26.8463 231.138C26.8299 231.31 29.0588 231.663 31.8248 231.927Z" fill="#AA6550"/>
<path d="M32.7235 229.335C35.3439 229.549 37.4795 229.583 37.4937 229.411C37.5078 229.238 35.3951 228.924 32.7747 228.709C30.1544 228.495 28.0187 228.461 28.0045 228.634C27.9904 228.806 30.1032 229.12 32.7235 229.335Z" fill="#AA6550"/>
<path d="M206.458 217.015L181.695 189.381C174.801 182.604 171.119 180.578 161.52 179.444C159.951 179.259 158.706 179.14 157.808 179.028C150.443 181.296 143.076 181.292 135.711 179.015C132.295 179.161 129.466 180.212 126.561 180.768C117.413 182.521 110.828 189.185 108.998 195.338L88.3584 235.659L105.788 250.309L121.714 225.035L122.683 251.94L121.696 272.042L182.824 272.219L180.044 225.02L196.495 238.411L206.458 217.015Z" fill="#794499"/>
<path d="M121.991 208.13C122.021 208.13 122.048 208.449 122.072 209.027C122.095 209.605 122.114 210.439 122.129 211.472C122.159 213.536 122.169 216.388 122.155 219.537C122.14 222.687 122.103 225.539 122.054 227.603C122.03 228.634 122.002 229.469 121.973 230.046C121.944 230.624 121.915 230.943 121.884 230.943C121.855 230.942 121.828 230.623 121.805 230.046C121.781 229.468 121.762 228.633 121.747 227.601C121.718 225.537 121.706 222.685 121.721 219.535C121.736 216.385 121.773 213.534 121.822 211.471C121.847 210.439 121.874 209.604 121.903 209.026C121.931 208.449 121.961 208.13 121.991 208.13Z" fill="#263238"/>
<path d="M181.083 242.743C181.053 242.745 180.99 242.252 180.9 241.357C180.813 240.388 180.7 239.111 180.562 237.567C180.296 234.366 179.958 229.94 179.611 225.051C179.264 220.159 178.975 215.73 178.786 212.523C178.704 210.975 178.637 209.695 178.586 208.723C178.548 207.825 178.541 207.328 178.572 207.326C178.602 207.323 178.665 207.817 178.755 208.711C178.842 209.68 178.955 210.957 179.093 212.501C179.359 215.703 179.697 220.129 180.044 225.02C180.391 229.909 180.68 234.337 180.869 237.545C180.95 239.093 181.018 240.373 181.069 241.345C181.107 242.243 181.113 242.741 181.083 242.743Z" fill="#263238"/>
<g opacity="0.3">
<path opacity="0.3" d="M190.146 198.679C190.146 198.764 171.594 198.833 148.715 198.833C125.828 198.833 107.281 198.764 107.281 198.679C107.281 198.593 125.828 198.524 148.715 198.524C171.594 198.524 190.146 198.593 190.146 198.679Z" fill="#EBEBEB"/>
</g>
<g opacity="0.3">
<path opacity="0.3" d="M196.557 223.238C196.557 223.324 173.956 223.393 146.083 223.393C118.199 223.393 95.6033 223.324 95.6033 223.238C95.6033 223.153 118.199 223.084 146.083 223.084C173.956 223.085 196.557 223.154 196.557 223.238Z" fill="#EBEBEB"/>
</g>
<g opacity="0.3">
<path opacity="0.3" d="M181.578 251.241C181.578 251.326 168.452 251.395 152.262 251.395C136.068 251.395 122.945 251.326 122.945 251.241C122.945 251.155 136.068 251.086 152.262 251.086C168.452 251.086 181.578 251.156 181.578 251.241Z" fill="#EBEBEB"/>
</g>
<g opacity="0.3">
<path opacity="0.3" d="M129.508 272.216C129.422 272.216 129.354 251.591 129.354 226.154C129.354 200.709 129.422 180.088 129.508 180.088C129.593 180.088 129.662 200.709 129.662 226.154C129.662 251.591 129.592 272.216 129.508 272.216Z" fill="#EBEBEB"/>
</g>
<g opacity="0.3">
<path opacity="0.3" d="M164.934 272.219C164.928 272.219 164.923 272.138 164.918 271.981C164.914 271.808 164.908 271.576 164.902 271.28C164.895 270.648 164.884 269.744 164.87 268.589C164.852 266.234 164.825 262.856 164.793 258.69C164.717 250.317 164.613 238.777 164.499 226.032C164.378 213.275 164.302 201.726 164.295 193.367C164.304 189.2 164.311 185.822 164.316 183.467C164.327 182.312 164.336 181.408 164.342 180.776C164.349 180.48 164.353 180.249 164.356 180.076C164.362 179.918 164.367 179.838 164.372 179.838C164.377 179.838 164.382 179.919 164.388 180.076C164.392 180.249 164.397 180.48 164.403 180.776C164.411 181.408 164.422 182.312 164.435 183.467C164.453 185.821 164.48 189.198 164.513 193.366C164.588 201.738 164.692 213.279 164.806 226.029C164.928 238.782 165.003 250.33 165.01 258.689C165.001 262.856 164.995 266.234 164.989 268.589C164.978 269.744 164.97 270.648 164.963 271.28C164.957 271.576 164.952 271.808 164.949 271.981C164.944 272.138 164.939 272.219 164.934 272.219Z" fill="#EBEBEB"/>
</g>
<g opacity="0.3">
<path opacity="0.3" d="M189.992 232.848C190.078 232.848 190.147 225.388 190.147 216.187C190.147 206.985 190.078 199.525 189.992 199.525C189.907 199.525 189.838 206.985 189.838 216.187C189.838 225.388 189.907 232.848 189.992 232.848Z" fill="#EBEBEB"/>
</g>
<g opacity="0.3">
<path opacity="0.3" d="M101.774 239.672C101.689 239.672 101.62 232.636 101.62 223.958C101.62 215.277 101.689 208.241 101.774 208.241C101.86 208.241 101.928 215.277 101.928 223.958C101.928 232.636 101.86 239.672 101.774 239.672Z" fill="#EBEBEB"/>
</g>
<path d="M133.426 179.838L136.801 172.748L147.85 180.535L158.755 173.209L162.593 179.437L151.667 186.538H144.359L133.426 180.661" fill="#CFABE2"/>
<path d="M147.85 180.535C147.85 180.546 147.779 180.566 147.644 180.596C147.513 180.64 147.303 180.63 147.071 180.754C146.58 180.913 145.95 181.374 145.422 182.148C144.882 182.916 144.411 183.946 143.903 185.104C143.645 185.683 143.382 186.298 143.052 186.917C142.721 187.531 142.349 188.177 141.778 188.704L141.669 188.805L141.564 188.697C141.364 188.489 141.151 188.267 140.936 188.043C138.745 185.75 136.883 183.563 135.585 181.942C134.935 181.131 134.424 180.464 134.08 179.997C133.735 179.529 133.555 179.263 133.572 179.25C133.589 179.237 133.802 179.478 134.175 179.922C134.584 180.41 135.115 181.042 135.753 181.803C137.092 183.386 138.975 185.543 141.16 187.831C141.374 188.055 141.586 188.276 141.786 188.484L141.573 188.476C142.097 187.996 142.463 187.376 142.79 186.778C143.117 186.176 143.385 185.566 143.651 184.991C144.176 183.839 144.674 182.801 145.253 182.026C145.82 181.242 146.51 180.777 147.034 180.646C147.282 180.535 147.502 180.563 147.638 180.537C147.778 180.526 147.85 180.525 147.85 180.535Z" fill="#263238"/>
<path d="M162.399 179.573C162.414 179.587 162.223 179.841 161.858 180.285C161.488 180.725 160.941 181.352 160.229 182.094C158.806 183.576 156.704 185.51 154.138 187.324C153.657 187.664 153.179 187.987 152.719 188.29L152.507 188.429L152.483 188.17C152.364 186.845 151.984 185.6 151.585 184.532C151.17 183.463 150.664 182.563 150.12 181.913C149.576 181.267 148.999 180.87 148.553 180.731C148.114 180.582 147.846 180.568 147.85 180.535C147.851 180.525 147.915 180.526 148.041 180.536C148.163 180.56 148.361 180.535 148.587 180.627C149.063 180.739 149.688 181.129 150.273 181.781C150.857 182.436 151.395 183.349 151.835 184.432C152.259 185.523 152.655 186.758 152.787 188.154L152.552 188.034C153.008 187.731 153.483 187.409 153.96 187.072C156.509 185.27 158.618 183.377 160.074 181.94C160.803 181.221 161.372 180.619 161.768 180.204C162.16 179.786 162.382 179.559 162.399 179.573Z" fill="#263238"/>
<path d="M152.058 272.219C152.052 272.219 152.047 272.139 152.042 271.983C152.037 271.813 152.032 271.584 152.026 271.292C152.017 270.666 152.006 269.774 151.991 268.631C151.963 266.305 151.924 262.967 151.875 258.85C151.754 250.59 151.49 239.181 150.914 226.592C150.333 213.998 149.548 202.611 148.911 194.376C148.582 190.271 148.316 186.944 148.13 184.625C148.04 183.486 147.97 182.596 147.92 181.973C147.9 181.682 147.885 181.453 147.873 181.283C147.864 181.127 147.862 181.047 147.868 181.047C147.873 181.047 147.886 181.125 147.905 181.28C147.924 181.45 147.95 181.678 147.982 181.968C148.045 182.59 148.135 183.479 148.25 184.615C148.48 186.913 148.781 190.243 149.129 194.36C149.822 202.592 150.641 213.98 151.222 226.579C151.799 239.172 152.027 250.587 152.093 258.848C152.125 262.979 152.13 266.322 152.112 268.632C152.101 269.774 152.094 270.668 152.088 271.293C152.082 271.585 152.077 271.814 152.074 271.984C152.069 272.139 152.064 272.219 152.058 272.219Z" fill="#263238"/>
<g opacity="0.2">
<path opacity="0.2" d="M147.594 180.583C148.933 181.346 149.434 183.048 149.438 184.589C149.443 186.13 149.075 187.666 149.208 189.201C149.278 190.005 149.543 190.878 150.235 191.295C151.172 191.859 152.362 191.331 153.321 190.805C155.383 189.671 157.474 188.518 159.154 186.871C160.836 185.224 161.575 182.921 161.523 180.568C158.681 183.617 155.816 185.454 152.707 187.861C152.484 186.264 151.95 184.644 151.142 183.249C150.337 181.852 149.196 180.405 147.594 180.583Z" fill="black"/>
</g>
<g opacity="0.2">
<path opacity="0.2" d="M137.442 184.063C138.49 186.117 139.59 188.233 141.393 189.669C142.193 190.305 143.365 190.782 144.198 190.189C144.867 189.713 144.981 188.782 145.036 187.962C145.178 185.876 145.794 183.477 145.936 181.39C144.285 183.252 143.379 186.537 141.634 188.796C139.862 187.676 138.835 185.765 137.558 184.103" fill="black"/>
</g>
<g opacity="0.2">
<path opacity="0.2" d="M191.211 233.832C193.961 228.72 196.709 223.608 199.458 218.497C197.015 218.737 195.376 221.042 194.115 223.147C192.854 225.252 191.333 227.597 188.914 228.014C187.232 228.303 185.55 227.552 184.084 226.677C182.618 225.802 181.193 224.765 179.527 224.395L191.211 233.832Z" fill="black"/>
</g>
<g opacity="0.2">
<path opacity="0.2" d="M118.772 229.703C118.772 229.703 113.03 235.744 109.157 236.633C105.283 237.522 101.04 236.643 97.8376 234.289C97.5747 234.095 97.303 233.886 96.9798 233.836C96.6565 233.787 96.2717 233.971 96.2291 234.295C96.1918 234.581 96.4215 234.826 96.634 235.023C100.59 238.697 104.707 242.197 108.968 245.512L118.772 229.703Z" fill="black"/>
</g>
<g opacity="0.2">
<path opacity="0.2" d="M145.814 188.492C143.635 205.892 142.212 223.384 141.55 240.907C141.446 243.647 141.374 246.473 142.35 249.036C143.487 252.022 145.906 254.302 148.249 256.474C149.247 257.399 150.607 258.39 151.839 257.814C152.32 257.589 152.667 257.16 152.991 256.74C154.468 254.831 155.858 252.77 156.405 250.418C158.121 243.04 151.163 235.74 152.731 228.33" fill="black"/>
</g>
<path d="M145.253 182.434L150.482 182.303C150.916 183.177 151.467 184.287 151.878 185.115L150.204 189.814H145.936L143.674 185.604L145.253 182.434Z" fill="#455A64"/>
<path d="M145.936 189.814L143.487 249.638L150.594 257.366L157.158 248.035L150.204 189.814H145.936Z" fill="#455A64"/>
<path d="M149.951 189.895C149.938 189.982 149.059 189.912 147.977 189.896C146.895 189.876 146.014 189.917 146.004 189.829C145.993 189.748 146.876 189.568 147.983 189.589C149.088 189.605 149.966 189.815 149.951 189.895Z" fill="#263238"/>
<path d="M151.079 183.312C151.11 183.337 150.871 183.695 150.417 184.217C149.963 184.74 149.282 185.418 148.453 186.076C147.622 186.732 146.805 187.239 146.192 187.56C145.579 187.883 145.177 188.033 145.159 187.997C145.116 187.913 146.63 187.134 148.262 185.835C149.9 184.546 151.007 183.251 151.079 183.312Z" fill="#263238"/>
<path d="M148.294 198.403C149.765 196.945 150.909 195.714 150.849 195.654C150.789 195.594 149.548 196.727 148.077 198.185C146.606 199.642 145.462 200.873 145.522 200.934C145.581 200.994 146.823 199.861 148.294 198.403Z" fill="#263238"/>
<path d="M148.351 203.016C149.987 201.394 151.265 200.03 151.205 199.969C151.145 199.909 149.77 201.174 148.133 202.796C146.497 204.418 145.219 205.782 145.279 205.843C145.339 205.903 146.714 204.638 148.351 203.016Z" fill="#EBEBEB"/>
<path d="M148.558 207.461C150.454 205.577 151.942 204.001 151.882 203.941C151.822 203.88 150.236 205.358 148.341 207.242C146.445 209.125 144.956 210.701 145.017 210.762C145.077 210.822 146.662 209.345 148.558 207.461Z" fill="#263238"/>
<path d="M148.722 211.955C150.785 209.905 152.409 208.195 152.349 208.134C152.289 208.074 150.568 209.687 148.505 211.737C146.441 213.787 144.817 215.498 144.877 215.558C144.937 215.618 146.658 214.005 148.722 211.955Z" fill="#EBEBEB"/>
<path d="M148.876 216.456C151.099 214.246 152.853 212.405 152.793 212.345C152.733 212.284 150.882 214.027 148.659 216.238C146.435 218.448 144.681 220.289 144.741 220.349C144.801 220.409 146.652 218.666 148.876 216.456Z" fill="#263238"/>
<path d="M149.01 220.979C151.453 218.549 153.385 216.53 153.325 216.47C153.265 216.41 151.236 218.331 148.793 220.761C146.35 223.191 144.418 225.209 144.478 225.27C144.538 225.33 146.567 223.409 149.01 220.979Z" fill="#EBEBEB"/>
<path d="M149.132 225.541C151.751 222.935 153.826 220.774 153.765 220.713C153.705 220.653 151.533 222.716 148.914 225.322C146.295 227.928 144.221 230.089 144.281 230.15C144.341 230.21 146.513 228.147 149.132 225.541Z" fill="#263238"/>
<path d="M149.336 229.988C152.131 227.207 154.348 224.904 154.288 224.843C154.228 224.783 151.914 226.989 149.119 229.77C146.325 232.551 144.108 234.855 144.168 234.915C144.228 234.975 146.542 232.77 149.336 229.988Z" fill="#EBEBEB"/>
<path d="M149.354 234.629C152.32 231.676 154.676 229.233 154.616 229.173C154.556 229.113 152.103 231.458 149.137 234.41C146.17 237.363 143.814 239.806 143.874 239.866C143.934 239.926 146.388 237.581 149.354 234.629Z" fill="#263238"/>
<path d="M149.636 239.005C152.765 235.889 155.253 233.314 155.193 233.254C155.133 233.194 152.548 235.671 149.419 238.787C146.29 241.903 143.802 244.477 143.862 244.537C143.922 244.598 146.507 242.121 149.636 239.005Z" fill="#EBEBEB"/>
<path d="M149.904 243.424C153.395 239.947 156.176 237.079 156.116 237.019C156.056 236.959 153.178 239.729 149.687 243.206C146.196 246.683 143.415 249.551 143.475 249.611C143.535 249.672 146.414 246.902 149.904 243.424Z" fill="#263238"/>
<path d="M150.972 246.568C148.009 249.545 145.655 252.006 145.716 252.066C145.776 252.126 148.227 249.762 151.19 246.785C154.153 243.809 156.506 241.347 156.446 241.287C156.386 241.227 153.935 243.591 150.972 246.568Z" fill="#EBEBEB"/>
<path d="M152.551 250.251C150.213 252.707 148.367 254.745 148.429 254.804C148.491 254.863 150.436 252.92 152.775 250.464C155.113 248.009 156.959 245.97 156.897 245.912C156.835 245.853 154.889 247.796 152.551 250.251Z" fill="#263238"/>
<path d="M148.059 194.106C149.369 192.808 150.383 191.706 150.323 191.646C150.263 191.585 149.153 192.589 147.842 193.888C146.532 195.186 145.518 196.288 145.578 196.348C145.638 196.408 146.749 195.405 148.059 194.106Z" fill="#EBEBEB"/>
<path d="M88.8723 235.566C88.005 235.485 87.6782 234.314 87.9618 233.49C88.2453 232.665 88.8871 232.002 89.1677 231.178C89.3281 230.707 89.3974 230.145 89.8076 229.864C90.2315 229.572 90.8928 229.592 91.2841 229.926C93.6953 231.988 95.4713 233.997 98.0998 236.225C100.632 238.371 103.365 241.124 106.037 243.095C107.543 244.206 109.384 245.354 109.587 247.216C109.754 248.755 108.462 250.299 106.917 250.404C105.391 250.508 104.07 249.425 102.928 248.407C98.1584 244.154 93.3886 239.902 88.6189 235.65" fill="#CFABE2"/>
<path d="M108.608 245.236C108.593 245.254 108.339 245.055 107.875 244.706C107.411 244.356 106.729 243.866 105.881 243.263C105.039 242.657 104.018 241.93 103.006 240.993C101.985 240.062 100.869 239.044 99.6982 237.976C97.3568 235.83 95.2487 233.873 93.7338 232.446C93.0121 231.758 92.4125 231.185 91.9507 230.745C91.5345 230.338 91.3113 230.107 91.3261 230.091C91.3409 230.076 91.5919 230.279 92.033 230.659C92.5119 231.081 93.1341 231.628 93.8824 232.288C95.4346 233.674 97.5646 235.603 99.9042 237.748C101.069 238.821 102.177 239.844 103.193 240.78C104.191 241.725 105.182 242.457 106.01 243.087C106.841 243.712 107.507 244.232 107.949 244.612C108.393 244.993 108.62 245.222 108.608 245.236Z" fill="#263238"/>
<path d="M107.031 246.617C107.019 246.634 106.748 246.478 106.265 246.178C105.782 245.881 105.094 245.432 104.255 244.864C102.574 243.728 100.298 242.088 97.8795 240.152C95.4623 238.215 93.3637 236.353 91.8872 234.961C91.1484 234.266 90.5606 233.692 90.1645 233.286C89.7673 232.881 89.5548 232.651 89.5696 232.635C89.5844 232.62 89.8253 232.821 90.2474 233.199C90.7121 233.615 91.3124 234.153 92.0347 234.8C93.546 236.148 95.6612 237.979 98.0725 239.912C100.484 241.841 102.734 243.504 104.38 244.685C105.169 245.248 105.825 245.716 106.333 246.078C106.793 246.408 107.042 246.598 107.031 246.617Z" fill="#263238"/>
<g opacity="0.3">
<path opacity="0.3" d="M94.5964 236.971C95.6994 235.87 96.5449 234.929 96.4848 234.869C96.4248 234.808 95.4819 235.652 94.3789 236.753C93.2759 237.855 92.4304 238.796 92.4905 238.856C92.5505 238.916 93.4934 238.072 94.5964 236.971Z" fill="#EBEBEB"/>
</g>
<g opacity="0.3">
<path opacity="0.3" d="M103.724 245.349C104.912 244.208 105.826 243.232 105.767 243.171C105.708 243.109 104.698 243.985 103.51 245.127C102.323 246.268 101.408 247.244 101.468 247.305C101.527 247.367 102.537 246.491 103.724 245.349Z" fill="#EBEBEB"/>
</g>
<g opacity="0.5">
<path opacity="0.5" d="M139.081 179.498C140.265 177.659 141.167 176.131 141.095 176.085C141.024 176.039 140.006 177.492 138.822 179.331C137.639 181.169 136.737 182.697 136.808 182.743C136.88 182.789 137.897 181.336 139.081 179.498Z" fill="#EBEBEB"/>
</g>
<g opacity="0.5">
<path opacity="0.5" d="M156.882 179.461C157.788 181.429 158.586 182.995 158.663 182.959C158.741 182.924 158.068 181.3 157.161 179.332C156.254 177.364 155.457 175.798 155.38 175.833C155.302 175.869 155.975 177.493 156.882 179.461Z" fill="#EBEBEB"/>
</g>
<path d="M197.282 237.037C196.885 237.832 196.187 238.251 195.321 238.157C194.455 238.064 193.665 237.586 192.798 237.496C192.304 237.445 191.741 237.502 191.375 237.164C190.997 236.815 191.023 236.218 191.108 235.711C191.658 232.438 193.435 229.508 195.342 226.792C197.248 224.075 199.34 221.443 200.667 218.4C201.416 216.684 202.127 214.634 203.895 214.022C205.359 213.517 207.151 214.434 207.598 215.916C208.038 217.381 207.276 218.91 206.538 220.249C203.452 225.845 200.367 231.441 197.282 237.037Z" fill="#CFABE2"/>
<path d="M203.203 217.078C203.223 217.086 203.124 217.381 202.926 217.908C202.73 218.435 202.431 219.192 202.05 220.123C201.288 221.985 200.181 224.534 198.868 227.31C197.554 230.086 196.284 232.558 195.327 234.328C194.849 235.213 194.453 235.924 194.17 236.41C193.887 236.897 193.722 237.161 193.704 237.151C193.685 237.14 193.814 236.857 194.064 236.354C194.342 235.8 194.702 235.086 195.134 234.227C196.04 232.433 197.278 229.949 198.59 227.178C199.901 224.407 201.037 221.875 201.85 220.037C202.24 219.159 202.565 218.427 202.816 217.861C203.047 217.349 203.183 217.069 203.203 217.078Z" fill="#263238"/>
<path d="M202.206 213.797C202.224 213.809 202.065 214.091 201.762 214.592C201.429 215.141 200.997 215.853 200.477 216.711C199.393 218.5 197.928 220.991 196.402 223.793C194.878 226.596 193.582 229.18 192.667 231.061C192.229 231.963 191.865 232.713 191.587 233.29C191.33 233.817 191.179 234.103 191.16 234.095C191.14 234.086 191.254 233.783 191.476 233.241C191.698 232.699 192.036 231.921 192.47 230.968C193.335 229.06 194.603 226.455 196.131 223.645C197.661 220.837 199.159 218.358 200.291 216.596C200.857 215.714 201.326 215.008 201.661 214.528C201.995 214.046 202.189 213.786 202.206 213.797Z" fill="#263238"/>
<g opacity="0.5">
<path opacity="0.5" d="M199.343 232.837C199.326 232.914 197.836 232.602 196.133 231.836C194.426 231.077 193.2 230.177 193.246 230.112C193.295 230.035 194.578 230.808 196.259 231.555C197.936 232.308 199.367 232.749 199.343 232.837Z" fill="#EBEBEB"/>
</g>
<g opacity="0.5">
<path opacity="0.5" d="M206.601 220.604C206.553 220.676 205.169 219.836 203.463 218.806C201.757 217.774 200.37 216.94 200.413 216.863C200.452 216.79 201.91 217.506 203.623 218.543C205.335 219.577 206.647 220.535 206.601 220.604Z" fill="#EBEBEB"/>
</g>
<path d="M42.8767 65.1952C42.8767 65.1952 46.4553 63.3162 50.4099 66.156C52.8572 67.9142 58.0627 70.6327 59.6658 68.9787L61.6401 62.6194C61.6401 62.6194 57.6921 61.9048 54.4941 59.3764C51.3512 56.8906 45.0884 57.0291 45.0884 57.0291L42.8767 65.1952Z" fill="#CFABE2"/>
<g opacity="0.4">
<path opacity="0.4" d="M53.9856 60.1845C55.861 61.2773 55.9853 63.6412 54.9132 64.9075C53.8405 66.1732 51.3671 65.8399 50.102 64.7683C48.8363 63.695 48.68 61.8001 49.7522 60.5344C50.8243 59.2675 52.5523 59.3486 53.9856 60.1845Z" fill="white"/>
</g>
<path d="M53.9204 61.4508C53.8902 61.4916 53.7683 61.4543 53.5711 61.3738C53.3746 61.2969 53.0987 61.1708 52.766 61.1181C52.6044 61.0932 52.4238 61.0932 52.2545 61.1352C52.0887 61.1749 51.9313 61.2696 51.8614 61.3874C51.7785 61.51 51.7566 61.6971 51.8147 61.8308C51.8602 61.9563 52.0136 62.0795 52.2604 62.1991C52.3818 62.2595 52.5174 62.3192 52.6588 62.3968C52.8003 62.4749 52.9525 62.5714 53.0863 62.7147C53.1526 62.7881 53.2112 62.8704 53.2579 62.961C53.3053 63.0527 53.3391 63.1546 53.3533 63.257C53.384 63.4612 53.345 63.6589 53.2674 63.8253C53.1887 63.9928 53.0715 64.1325 52.9282 64.2338C52.7802 64.3362 52.6334 64.3877 52.4878 64.4143C52.1983 64.4664 51.9461 64.4179 51.7365 64.351C51.5246 64.2805 51.36 64.184 51.2238 64.0917C51.0889 63.9999 50.9847 63.9094 50.9047 63.833C50.7437 63.6767 50.6745 63.5701 50.7023 63.5305C50.7301 63.489 50.855 63.5192 51.0557 63.5997C51.254 63.6737 51.5346 63.8093 51.8602 63.8614C52.0219 63.8851 52.2018 63.8857 52.3551 63.8365C52.5126 63.7862 52.6127 63.6998 52.6636 63.5613C52.6873 63.495 52.6926 63.4257 52.679 63.3677C52.6731 63.3369 52.6612 63.312 52.6446 63.2836C52.6269 63.2534 52.605 63.2256 52.5766 63.1966C52.4641 63.0776 52.2231 62.9746 51.9407 62.8384C51.7993 62.768 51.6477 62.6851 51.5027 62.5626C51.4299 62.4998 51.363 62.4288 51.302 62.3477C51.2416 62.2642 51.1901 62.1724 51.1581 62.0765C51.0208 61.6876 51.109 61.2868 51.3268 61.002C51.5577 60.7025 51.8798 60.5871 52.1533 60.5521C52.4303 60.5172 52.6784 60.5598 52.8885 60.6273C53.3035 60.7712 53.5616 60.9884 53.7239 61.1429C53.8849 61.3004 53.9488 61.4123 53.9204 61.4508Z" fill="#CFABE2"/>
<path d="M52.1415 62.4362C52.5585 61.1643 52.821 60.1085 52.7278 60.0779C52.6346 60.0474 52.221 61.0537 51.804 62.3256C51.3871 63.5974 51.1246 64.6533 51.2178 64.6838C51.311 64.7144 51.7246 63.7081 52.1415 62.4362Z" fill="#CFABE2"/>
<path d="M52.6933 62.5112C53.0723 61.3569 53.3034 60.3962 53.2096 60.3654C53.1158 60.3346 52.7326 61.2454 52.3536 62.3997C51.9747 63.554 51.7435 64.5148 51.8373 64.5456C51.9312 64.5764 52.3144 63.6655 52.6933 62.5112Z" fill="#CFABE2"/>
<g opacity="0.5">
<path opacity="0.5" d="M60.8398 63.0231L59.0218 68.8016L58.9608 68.8141C56.1162 69.3913 52.5062 66.9209 50.1169 65.2858C49.7055 65.004 49.3165 64.7376 48.9767 64.5185C46.7017 63.0468 44.0039 64.1237 43.853 64.322L43.6582 64.2421L45.5177 57.9763L45.584 57.9663C49.6262 57.3482 53.293 59.0745 55.2046 60.7404C56.99 62.2956 60.6859 62.9953 60.7232 63.0018L60.8398 63.0231ZM58.8566 68.6181L60.5657 63.1871C59.9045 63.0533 56.7319 62.353 55.0649 60.8996C53.1971 59.2728 49.6256 57.5874 45.6817 58.1652L43.9453 64.0165C44.1584 63.9135 44.4237 63.8312 44.5 63.8081C45.1045 63.627 47.2209 63.1297 49.0916 64.3397C49.4332 64.5611 49.8233 64.8281 50.2365 65.1105C52.5785 66.7131 56.1091 69.1296 58.8566 68.6181Z" fill="white"/>
</g>
<path d="M265.488 116.417C265.488 116.417 265.449 123.32 257.995 127.002C253.381 129.281 245.107 134.946 246.314 138.69L254.316 146.768C254.316 146.768 258.561 141.39 264.938 138.598C271.207 135.856 276.023 126.304 276.023 126.304L265.488 116.417Z" fill="#CFABE2"/>
<g opacity="0.4">
<path opacity="0.4" d="M264.128 137.184C260.975 139.134 257.312 137.424 256.265 134.792C255.217 132.16 257.705 128.699 260.335 127.651C262.968 126.604 265.95 127.89 266.998 130.522C268.046 133.153 266.537 135.693 264.128 137.184Z" fill="white"/>
</g>
<path d="M262.271 136.068C262.233 135.99 262.387 135.836 262.667 135.604C262.941 135.369 263.352 135.054 263.699 134.595C263.866 134.371 264.011 134.099 264.083 133.81C264.156 133.529 264.14 133.215 264.019 133.015C263.901 132.792 263.636 132.609 263.388 132.588C263.162 132.556 262.854 132.689 262.476 132.966C262.288 133.099 262.089 133.256 261.858 133.407C261.626 133.558 261.358 133.71 261.035 133.796C260.871 133.838 260.7 133.859 260.527 133.858C260.351 133.856 260.17 133.825 260.005 133.764C259.672 133.647 259.405 133.43 259.216 133.179C259.027 132.926 258.911 132.638 258.873 132.34C258.837 132.035 258.877 131.772 258.954 131.531C259.108 131.053 259.384 130.712 259.652 130.45C259.929 130.187 260.206 130.016 260.454 129.885C260.7 129.755 260.921 129.67 261.1 129.612C261.465 129.495 261.681 129.476 261.718 129.549C261.759 129.624 261.613 129.789 261.331 130.026C261.061 130.267 260.631 130.58 260.291 131.029C260.127 131.254 259.981 131.525 259.931 131.795C259.881 132.073 259.931 132.293 260.099 132.481C260.18 132.57 260.28 132.634 260.379 132.66C260.43 132.675 260.478 132.678 260.533 132.675C260.593 132.673 260.652 132.662 260.719 132.643C260.987 132.569 261.336 132.288 261.768 131.972C261.988 131.816 262.234 131.654 262.536 131.534C262.689 131.474 262.85 131.43 263.021 131.403C263.194 131.38 263.375 131.375 263.545 131.403C264.241 131.509 264.775 131.963 265.029 132.52C265.296 133.108 265.212 133.685 265.044 134.127C264.874 134.573 264.612 134.912 264.34 135.175C263.791 135.685 263.256 135.9 262.894 136.02C262.525 136.136 262.305 136.143 262.271 136.068Z" fill="#CFABE2"/>
<path d="M262.208 132.601C263.79 134.25 265.171 135.493 265.292 135.377C265.413 135.261 264.228 133.83 262.646 132.181C261.063 130.531 259.682 129.289 259.561 129.405C259.44 129.521 260.625 130.952 262.208 132.601Z" fill="#CFABE2"/>
<path d="M264.483 135.871C264.362 135.989 263.097 134.869 261.663 133.372C260.225 131.874 259.16 130.564 259.282 130.448C259.403 130.332 260.668 131.451 262.102 132.949C263.539 134.446 264.604 135.755 264.483 135.871Z" fill="#CFABE2"/>
<g opacity="0.5">
<path opacity="0.5" d="M254.348 145.237L247.097 137.86L247.127 137.758C248.54 133.007 255.161 129.547 259.543 127.257C260.298 126.863 261.01 126.491 261.614 126.155C265.658 123.906 266.199 118.975 266.022 118.589L266.299 118.359L274.252 126.19L274.214 126.298C271.903 132.887 266.358 137.029 262.313 138.574C258.536 140.017 254.516 145.027 254.476 145.078L254.348 145.237ZM247.505 137.759L254.321 144.692C255.052 143.803 258.654 139.584 262.183 138.236C266.134 136.726 271.54 132.694 273.833 126.287L266.406 118.974C266.391 119.378 266.302 119.843 266.276 119.977C266.064 121.033 265.115 124.622 261.79 126.471C261.183 126.809 260.467 127.183 259.71 127.578C255.415 129.823 248.939 133.207 247.505 137.759Z" fill="white"/>
</g>
<path d="M269.276 58.3783C269.276 58.3783 264.889 59.3486 261.476 55.1483C259.365 52.5477 254.575 48.1124 252.373 49.4184L248.398 55.6628C248.398 55.6628 252.425 57.5821 255.116 61.2276C257.761 64.8116 264.519 66.4917 264.519 66.4917L269.276 58.3783Z" fill="#CFABE2"/>
<g opacity="0.4">
<path opacity="0.4" d="M255.898 60.5095C254.205 58.7897 254.762 56.2175 256.281 55.1732C257.801 54.1283 260.357 55.2087 261.401 56.7272C262.446 58.2475 262.059 60.326 260.54 61.3709C259.021 62.4157 257.192 61.8243 255.898 60.5095Z" fill="white"/>
</g>
<path d="M256.338 59.1698C256.382 59.1343 256.502 59.2107 256.69 59.3545C256.878 59.4948 257.138 59.7103 257.479 59.8642C257.645 59.9382 257.838 59.9909 258.033 59.9957C258.222 60.0016 258.419 59.9465 258.528 59.84C258.653 59.7328 258.731 59.538 258.708 59.3776C258.696 59.2296 258.568 59.0526 258.338 58.8531C258.226 58.753 258.097 58.6494 257.968 58.5245C257.838 58.3996 257.703 58.2516 257.602 58.0586C257.552 57.9604 257.513 57.855 257.49 57.7443C257.466 57.6324 257.46 57.5128 257.475 57.3991C257.502 57.1712 257.601 56.9699 257.733 56.8142C257.866 56.658 258.033 56.5425 258.216 56.4756C258.404 56.4087 258.577 56.3963 258.741 56.4105C259.067 56.4389 259.323 56.565 259.528 56.6976C259.735 56.835 259.883 56.9865 260.002 57.125C260.119 57.2624 260.206 57.3903 260.269 57.4956C260.396 57.7105 260.439 57.8449 260.398 57.8792C260.356 57.916 260.231 57.8467 260.04 57.7022C259.848 57.5649 259.587 57.337 259.253 57.1866C259.086 57.1144 258.894 57.0617 258.715 57.0682C258.531 57.0765 258.399 57.1404 258.304 57.2736C258.259 57.3376 258.233 57.4104 258.231 57.4767C258.229 57.5116 258.234 57.5418 258.243 57.5761C258.254 57.614 258.269 57.6501 258.291 57.6898C258.377 57.8497 258.605 58.0308 258.869 58.2593C258.999 58.3765 259.138 58.5091 259.257 58.6832C259.317 58.7714 259.369 58.8673 259.41 58.9721C259.45 59.0786 259.479 59.1929 259.485 59.3048C259.519 59.7618 259.307 60.1661 258.991 60.4083C258.656 60.6622 258.277 60.6918 257.972 60.6492C257.664 60.606 257.412 60.4882 257.206 60.3532C256.802 60.0779 256.589 59.7695 256.46 59.557C256.332 59.3415 256.296 59.2024 256.338 59.1698Z" fill="#CFABE2"/>
<path d="M258.527 58.6203C257.709 59.8628 257.119 60.9187 257.21 60.9788C257.301 61.0389 258.039 60.0804 258.858 58.8379C259.676 57.5955 260.266 56.5396 260.175 56.4795C260.084 56.4194 259.346 57.3779 258.527 58.6203Z" fill="#CFABE2"/>
<path d="M257.951 58.4034C257.208 59.5311 256.679 60.4941 256.771 60.5544C256.862 60.6147 257.539 59.7494 258.283 58.6218C259.026 57.4941 259.555 56.5311 259.463 56.4708C259.372 56.4105 258.695 57.2758 257.951 58.4034Z" fill="#CFABE2"/>
<g opacity="0.5">
<path opacity="0.5" d="M249.376 55.4627L253.013 49.7961L253.082 49.8008C256.302 50.0122 259.453 53.7163 261.538 56.1678C261.897 56.5899 262.236 56.9889 262.537 57.3234C264.548 59.5659 267.756 59.1982 267.976 59.0301L268.161 59.1728L264.337 65.3509L264.263 65.3426C259.747 64.8252 256.318 61.9031 254.754 59.5582C253.293 57.369 249.533 55.5391 249.495 55.5213L249.376 55.4627ZM253.136 50.0406L249.717 55.3674C250.387 55.7037 253.585 57.3814 254.95 59.4267C256.477 61.7172 259.817 64.5677 264.215 65.0993L267.786 59.3302C267.527 59.3788 267.219 59.3894 267.13 59.3918C266.429 59.4102 264.014 59.3249 262.361 57.4808C262.059 57.1434 261.718 56.7438 261.358 56.3199C259.314 53.9176 256.232 50.2945 253.136 50.0406Z" fill="white"/>
</g>
<path d="M215.547 62.9243C215.547 62.9243 210.05 67.0985 202.588 63.4328C197.97 61.1625 188.436 58.0539 186.203 61.2915L184.673 72.5591C184.673 72.5591 191.524 72.6479 197.623 76.0039C203.618 79.3031 214.126 77.3016 214.126 77.3016L215.547 62.9243Z" fill="#CFABE2"/>
<g opacity="0.4">
<path opacity="0.4" d="M198.252 74.499C194.785 73.1877 193.908 69.2415 195.357 66.8066C196.805 64.3723 201.066 64.2355 203.499 65.683C205.934 67.1328 206.732 70.281 205.284 72.7153C203.835 75.1496 200.902 75.5013 198.252 74.499Z" fill="white"/>
</g>
<path d="M198.004 72.3471C198.043 72.2696 198.261 72.298 198.614 72.3779C198.967 72.4525 199.467 72.5863 200.043 72.5816C200.323 72.578 200.626 72.5271 200.9 72.4087C201.167 72.295 201.405 72.092 201.49 71.8735C201.596 71.6438 201.579 71.3218 201.444 71.1128C201.332 70.9151 201.038 70.7505 200.589 70.6197C200.368 70.5522 200.123 70.49 199.862 70.3989C199.602 70.3071 199.318 70.1875 199.053 69.9839C198.92 69.8791 198.798 69.7565 198.695 69.6174C198.589 69.4771 198.504 69.3149 198.451 69.1468C198.341 68.8117 198.351 68.4672 198.434 68.1646C198.519 67.8609 198.678 67.5928 198.891 67.3814C199.11 67.1671 199.344 67.0387 199.582 66.9522C200.055 66.7829 200.493 66.7936 200.864 66.8468C201.242 66.906 201.545 67.0215 201.801 67.1387C202.054 67.2547 202.256 67.3779 202.411 67.4838C202.726 67.7017 202.872 67.8621 202.838 67.9361C202.802 68.0143 202.583 67.9983 202.223 67.9201C201.867 67.8515 201.358 67.7017 200.795 67.7064C200.516 67.7129 200.213 67.7627 199.968 67.8876C199.717 68.0172 199.573 68.1913 199.526 68.4387C199.506 68.5571 199.515 68.6749 199.555 68.7691C199.574 68.8188 199.602 68.8585 199.637 68.9005C199.675 68.9467 199.72 68.9875 199.776 69.0278C199.998 69.1959 200.433 69.3013 200.947 69.4517C201.205 69.531 201.484 69.6269 201.763 69.7932C201.902 69.8785 202.036 69.9785 202.161 70.0987C202.286 70.2218 202.399 70.3621 202.481 70.5143C202.821 71.1306 202.786 71.8303 202.5 72.3714C202.195 72.9415 201.686 73.2262 201.234 73.3624C200.777 73.4997 200.348 73.498 199.974 73.4429C199.235 73.318 198.739 73.0244 198.422 72.8113C198.106 72.5904 197.967 72.4199 198.004 72.3471Z" fill="#CFABE2"/>
<path d="M200.706 70.1933C200.362 72.4532 200.219 74.3057 200.384 74.3309C200.55 74.3561 200.963 72.5444 201.306 70.2845C201.65 68.0247 201.794 66.1722 201.628 66.147C201.462 66.1218 201.049 67.9334 200.706 70.1933Z" fill="#CFABE2"/>
<path d="M199.509 73.981C199.342 73.9568 199.46 72.2713 199.772 70.2218C200.084 68.1694 200.474 66.5278 200.64 66.5526C200.806 66.5775 200.689 68.2623 200.375 70.3124C200.064 72.3637 199.676 74.0059 199.509 73.981Z" fill="#CFABE2"/>
<g opacity="0.5">
<path opacity="0.5" d="M185.908 71.6515L187.339 61.4064L187.438 61.3691C192.065 59.5937 198.844 62.736 203.329 64.8151C204.102 65.1733 204.832 65.5119 205.465 65.7854C209.712 67.6212 213.952 65.046 214.151 64.6701L214.501 64.75L213.138 75.8275L213.029 75.8636C206.397 78.0451 199.734 76.1732 196.044 73.907C192.598 71.7918 186.176 71.6563 186.112 71.6557L185.908 71.6515ZM187.667 61.6698L186.322 71.2987C187.473 71.3372 193.014 71.6219 196.233 73.598C199.837 75.8109 206.329 77.6414 212.806 75.5546L214.079 65.21C213.749 65.4438 213.327 65.6569 213.203 65.7173C212.237 66.1933 208.813 67.6277 205.322 66.1181C204.683 65.8416 203.952 65.5024 203.176 65.1437C198.779 63.1054 192.151 60.0323 187.667 61.6698Z" fill="white"/>
</g>
<path d="M209.825 139.663C209.825 139.663 204.356 138.476 202.682 131.946C201.647 127.904 198.537 120.39 195.365 120.721L187.616 125.718C187.616 125.718 191.172 129.986 192.319 135.514C193.445 140.946 200.217 146.367 200.217 146.367L209.825 139.663Z" fill="#CFABE2"/>
<g opacity="0.4">
<path opacity="0.4" d="M193.577 135.107C192.557 132.279 194.528 129.66 196.791 129.269C199.055 128.878 201.385 131.431 201.776 133.694C202.166 135.959 200.647 138.109 198.383 138.5C196.119 138.891 194.357 137.269 193.577 135.107Z" fill="white"/>
</g>
<path d="M194.773 133.82C194.841 133.803 194.938 133.952 195.075 134.212C195.216 134.469 195.397 134.848 195.703 135.2C195.853 135.37 196.044 135.531 196.262 135.637C196.472 135.742 196.723 135.782 196.903 135.718C197.099 135.662 197.289 135.483 197.347 135.289C197.409 135.116 197.357 134.848 197.201 134.502C197.125 134.331 197.034 134.147 196.953 133.938C196.872 133.729 196.796 133.491 196.782 133.22C196.777 133.083 196.788 132.944 196.819 132.806C196.85 132.667 196.905 132.529 196.98 132.408C197.129 132.163 197.346 131.988 197.577 131.88C197.809 131.772 198.058 131.728 198.3 131.748C198.548 131.77 198.75 131.847 198.929 131.947C199.283 132.149 199.507 132.425 199.67 132.683C199.832 132.946 199.921 133.194 199.983 133.413C200.045 133.63 200.076 133.82 200.092 133.971C200.124 134.28 200.103 134.454 200.039 134.472C199.972 134.492 199.866 134.348 199.725 134.085C199.58 133.83 199.403 133.437 199.103 133.092C198.952 132.924 198.762 132.764 198.556 132.678C198.344 132.592 198.161 132.595 197.983 132.697C197.899 132.746 197.832 132.815 197.795 132.889C197.775 132.927 197.765 132.964 197.757 133.008C197.749 133.056 197.748 133.105 197.752 133.161C197.765 133.387 197.93 133.71 198.109 134.106C198.196 134.307 198.283 134.529 198.328 134.789C198.349 134.92 198.358 135.055 198.35 135.196C198.34 135.337 198.313 135.482 198.262 135.612C198.062 136.146 197.612 136.494 197.128 136.602C196.616 136.715 196.172 136.551 195.85 136.345C195.525 136.135 195.3 135.87 195.136 135.611C194.824 135.09 194.743 134.629 194.708 134.321C194.677 134.012 194.708 133.836 194.773 133.82Z" fill="#CFABE2"/>
<path d="M197.539 134.346C195.966 135.325 194.748 136.213 194.82 136.328C194.892 136.444 196.226 135.743 197.799 134.764C199.373 133.784 200.59 132.896 200.518 132.781C200.446 132.666 199.113 133.366 197.539 134.346Z" fill="#CFABE2"/>
<path d="M197.019 133.786C195.59 134.674 194.491 135.489 194.563 135.605C194.635 135.721 195.852 135.094 197.28 134.206C198.709 133.317 199.809 132.503 199.736 132.387C199.664 132.27 198.448 132.897 197.019 133.786Z" fill="#CFABE2"/>
<g opacity="0.5">
<path opacity="0.5" d="M188.825 126L195.892 121.482L195.968 121.523C199.501 123.439 201.137 129.271 202.221 133.132C202.407 133.797 202.583 134.425 202.749 134.959C203.857 138.544 207.678 139.799 208.014 139.723L208.15 139.981L200.606 144.98L200.526 144.932C195.686 141.995 193.328 136.903 192.779 133.434C192.266 130.196 188.965 126.168 188.931 126.128L188.825 126ZM195.903 121.823L189.261 126.07C189.844 126.799 192.589 130.364 193.068 133.388C193.604 136.776 195.897 141.74 200.598 144.633L207.643 139.964C207.325 139.884 206.971 139.736 206.869 139.692C206.067 139.348 203.378 137.993 202.467 135.046C202.301 134.508 202.124 133.878 201.936 133.211C200.876 129.427 199.275 123.723 195.903 121.823Z" fill="white"/>
</g>
<path d="M157.939 96.6416C157.939 96.6416 153.587 97.4663 150.35 93.2252C148.347 90.5991 143.761 86.0851 141.552 87.3058L137.448 93.34C137.448 93.34 141.358 95.3516 143.901 99.025C146.4 102.636 153.008 104.493 153.008 104.493L157.939 96.6416Z" fill="#CFABE2"/>
<g opacity="0.4">
<path opacity="0.4" d="M144.692 98.3406C143.076 96.5948 143.703 94.0777 145.231 93.0938C146.76 92.1099 149.246 93.2506 150.23 94.7786C151.213 96.3083 150.77 98.3448 149.242 99.3287C147.713 100.312 145.928 99.675 144.692 98.3406Z" fill="white"/>
</g>
<path d="M145.166 97.0335C145.21 96.9998 145.327 97.0785 145.508 97.2259C145.689 97.3698 145.938 97.59 146.27 97.7516C146.431 97.8292 146.621 97.8872 146.812 97.8973C146.998 97.9085 147.194 97.86 147.304 97.7593C147.43 97.6575 147.513 97.468 147.495 97.3094C147.487 97.1632 147.366 96.985 147.145 96.7807C147.037 96.6789 146.914 96.5729 146.791 96.4463C146.667 96.319 146.539 96.1692 146.445 95.9762C146.398 95.8779 146.363 95.7731 146.344 95.6636C146.323 95.5523 146.32 95.4351 146.338 95.3232C146.371 95.0995 146.476 94.9041 146.61 94.7543C146.746 94.6045 146.914 94.495 147.096 94.4346C147.284 94.3743 147.454 94.3677 147.616 94.3861C147.936 94.424 148.184 94.556 148.383 94.6927C148.583 94.8348 148.724 94.9882 148.837 95.1285C148.948 95.2676 149.03 95.3961 149.089 95.5014C149.208 95.7169 149.246 95.8507 149.204 95.8833C149.162 95.9182 149.041 95.846 148.856 95.698C148.671 95.5571 148.421 95.325 148.096 95.1663C147.935 95.09 147.747 95.032 147.57 95.0337C147.388 95.0361 147.256 95.0953 147.158 95.2238C147.112 95.2853 147.084 95.3564 147.081 95.4215C147.077 95.4558 147.081 95.486 147.089 95.5204C147.098 95.5577 147.113 95.5938 147.133 95.6334C147.213 95.7939 147.433 95.9786 147.685 96.2124C147.811 96.332 147.943 96.467 148.056 96.6422C148.111 96.731 148.16 96.8269 148.197 96.9317C148.234 97.0377 148.259 97.1513 148.261 97.262C148.281 97.7131 148.06 98.1056 147.741 98.3342C147.403 98.5745 147.028 98.5923 146.73 98.5414C146.429 98.4893 146.183 98.3655 145.984 98.227C145.595 97.9434 145.394 97.6332 145.273 97.4195C145.155 97.2022 145.123 97.0649 145.166 97.0335Z" fill="#CFABE2"/>
<path d="M147.333 96.5727C146.489 97.7728 145.876 98.7958 145.964 98.8577C146.052 98.9195 146.808 97.9969 147.652 96.7969C148.496 95.5968 149.109 94.5738 149.021 94.5119C148.933 94.4501 148.177 95.3727 147.333 96.5727Z" fill="#CFABE2"/>
<path d="M146.793 96.315C146.027 97.4039 145.477 98.3372 145.566 98.3995C145.654 98.4618 146.347 97.6295 147.114 96.5406C147.88 95.4517 148.43 94.5185 148.341 94.4562C148.253 94.3939 147.56 95.2261 146.793 96.315Z" fill="#CFABE2"/>
<g opacity="0.5">
<path opacity="0.5" d="M138.417 93.1719L142.171 87.6965L142.239 87.703C145.405 88.0079 148.398 91.7523 150.38 94.2304C150.721 94.6572 151.043 95.061 151.329 95.399C153.243 97.6693 156.416 97.4035 156.637 97.2443L156.816 97.3905L152.862 103.363L152.79 103.353C148.355 102.707 145.064 99.7253 143.593 97.3674C142.219 95.1664 138.569 93.2506 138.533 93.2317L138.417 93.1719ZM142.284 87.9422L138.756 93.0884C139.406 93.4401 142.507 95.1889 143.79 97.2455C145.227 99.5478 148.431 102.457 152.75 103.113L156.442 97.5355C156.185 97.5752 155.882 97.5764 155.794 97.5764C155.102 97.5734 152.725 97.4171 151.151 95.5506C150.864 95.2096 150.54 94.8046 150.198 94.3766C148.256 91.9471 145.328 88.2844 142.284 87.9422Z" fill="white"/>
</g>
<path d="M48.7997 177.059C48.7997 177.059 44.4479 177.884 41.2109 173.642C39.2081 171.016 34.6213 166.502 32.412 167.724L28.3082 173.757C28.3082 173.757 32.2178 175.769 34.761 179.443C37.2605 183.053 43.8689 184.911 43.8689 184.911L48.7997 177.059Z" fill="#CFABE2"/>
<g opacity="0.4">
<path opacity="0.4" d="M35.5531 178.758C33.937 177.013 34.5633 174.495 36.0918 173.512C37.621 172.528 40.1068 173.669 41.0907 175.196C42.074 176.726 41.6318 178.762 40.1026 179.747C38.5735 180.731 36.7886 180.092 35.5531 178.758Z" fill="white"/>
</g>
<path d="M36.0268 177.451C36.0712 177.418 36.1878 177.496 36.3683 177.643C36.5495 177.787 36.7987 178.007 37.1302 178.17C37.2919 178.247 37.4813 178.305 37.6725 178.315C37.8584 178.327 38.0544 178.278 38.1651 178.177C38.2912 178.075 38.3746 177.886 38.3563 177.727C38.3486 177.581 38.2272 177.402 38.0064 177.199C37.8987 177.097 37.7755 176.99 37.6518 176.864C37.5287 176.737 37.4002 176.587 37.3061 176.394C37.2593 176.295 37.2244 176.19 37.2048 176.081C37.1841 175.97 37.1812 175.852 37.1995 175.741C37.2327 175.517 37.3369 175.322 37.4712 175.172C37.6068 175.022 37.7749 174.913 37.9573 174.853C38.1449 174.792 38.3154 174.786 38.477 174.805C38.7973 174.842 39.0454 174.974 39.2443 175.111C39.4438 175.253 39.5853 175.407 39.6983 175.546C39.8102 175.685 39.8913 175.814 39.9499 175.92C40.0689 176.135 40.1074 176.269 40.0654 176.302C40.0233 176.337 39.9014 176.264 39.7173 176.116C39.5326 175.976 39.2828 175.743 38.9577 175.585C38.7961 175.509 38.6079 175.45 38.4309 175.452C38.2497 175.455 38.1171 175.514 38.0194 175.642C37.9733 175.704 37.9454 175.775 37.9419 175.841C37.9383 175.875 37.9425 175.905 37.9508 175.939C37.9596 175.976 37.9738 176.013 37.9946 176.052C38.0739 176.212 38.2941 176.397 38.5463 176.631C38.6718 176.75 38.8044 176.885 38.9169 177.061C38.9731 177.149 39.0211 177.246 39.0584 177.35C39.0951 177.457 39.12 177.57 39.1229 177.681C39.1424 178.132 38.9216 178.524 38.6025 178.753C38.2651 178.994 37.8904 179.011 37.592 178.96C37.2907 178.908 37.0444 178.785 36.8455 178.646C36.4565 178.362 36.2559 178.052 36.1351 177.839C36.0155 177.62 35.9841 177.482 36.0268 177.451Z" fill="#CFABE2"/>
<path d="M38.1941 176.983C37.3501 178.183 36.7373 179.206 36.8252 179.268C36.9132 179.33 37.6687 178.408 38.5127 177.207C39.3567 176.007 39.9696 174.984 39.8816 174.923C39.7936 174.861 39.0381 175.783 38.1941 176.983Z" fill="#CFABE2"/>
<path d="M37.6532 176.742C36.8869 177.83 36.3374 178.763 36.4259 178.826C36.5144 178.888 37.2073 178.056 37.9737 176.967C38.74 175.879 39.2895 174.946 39.201 174.883C39.1125 174.821 38.4195 175.653 37.6532 176.742Z" fill="#CFABE2"/>
<g opacity="0.5">
<path opacity="0.5" d="M29.2773 173.59L33.0312 168.114L33.0993 168.122C36.2653 168.426 39.2591 172.171 41.2411 174.648C41.5821 175.075 41.9047 175.478 42.1906 175.817C44.1046 178.087 47.2765 177.821 47.4985 177.662L47.6767 177.808L43.7233 183.781L43.6505 183.77C39.2158 183.125 35.9249 180.143 34.4538 177.786C33.0798 175.585 29.4301 173.669 29.3934 173.651L29.2773 173.59ZM33.1449 168.359L29.6166 173.505C30.2666 173.857 33.3675 175.606 34.6503 177.662C36.0877 179.965 39.2922 182.874 43.6108 183.529L47.3026 177.952C47.0462 177.991 46.7425 177.992 46.6549 177.992C45.964 177.989 43.5866 177.833 42.0124 175.967C41.7247 175.625 41.4015 175.221 41.0593 174.793C39.1164 172.364 36.1883 168.702 33.1449 168.359Z" fill="white"/>
</g>
<path d="M112.606 121.264C112.606 121.264 110.989 126.536 104.439 127.642C100.384 128.324 92.7498 130.757 92.8125 133.899L97.0785 141.921C97.0785 141.921 101.563 138.782 107.086 138.112C112.513 137.454 118.395 131.252 118.395 131.252L112.606 121.264Z" fill="#CFABE2"/>
<g opacity="0.4">
<path opacity="0.4" d="M106.791 136.843C103.93 137.61 101.521 135.46 101.324 133.205C101.127 130.95 103.827 128.873 106.081 128.677C108.337 128.481 110.323 130.15 110.52 132.405C110.716 134.659 108.978 136.256 106.791 136.843Z" fill="white"/>
</g>
<path d="M105.626 135.563C105.615 135.494 105.77 135.411 106.036 135.298C106.299 135.182 106.687 135.035 107.058 134.763C107.237 134.63 107.411 134.456 107.533 134.251C107.653 134.052 107.713 133.809 107.666 133.628C107.627 133.43 107.466 133.229 107.281 133.157C107.116 133.08 106.849 133.111 106.496 133.236C106.321 133.295 106.133 133.369 105.921 133.431C105.71 133.494 105.47 133.548 105.202 133.54C105.067 133.534 104.931 133.512 104.799 133.47C104.665 133.428 104.534 133.363 104.422 133.278C104.194 133.112 104.039 132.884 103.953 132.649C103.866 132.412 103.844 132.164 103.883 131.928C103.925 131.686 104.017 131.494 104.131 131.327C104.358 130.996 104.648 130.799 104.914 130.66C105.186 130.522 105.437 130.455 105.657 130.413C105.875 130.37 106.064 130.355 106.214 130.352C106.52 130.346 106.69 130.381 106.701 130.446C106.715 130.513 106.566 130.605 106.295 130.722C106.032 130.844 105.632 130.984 105.269 131.251C105.091 131.385 104.918 131.558 104.817 131.754C104.715 131.955 104.703 132.135 104.788 132.317C104.83 132.404 104.891 132.476 104.961 132.518C104.997 132.542 105.033 132.554 105.075 132.565C105.121 132.577 105.169 132.583 105.224 132.583C105.447 132.588 105.778 132.453 106.182 132.311C106.386 132.242 106.612 132.175 106.871 132.152C107.001 132.142 107.135 132.145 107.272 132.164C107.41 132.186 107.549 132.224 107.673 132.285C108.181 132.525 108.485 132.996 108.552 133.481C108.621 133.992 108.423 134.415 108.194 134.714C107.962 135.016 107.683 135.215 107.415 135.354C106.877 135.618 106.418 135.659 106.114 135.669C105.806 135.673 105.636 135.627 105.626 135.563Z" fill="#CFABE2"/>
<path d="M106.376 132.891C107.208 134.517 107.979 135.785 108.099 135.724C108.218 135.663 107.64 134.295 106.808 132.67C105.976 131.044 105.205 129.775 105.086 129.836C104.967 129.897 105.544 131.265 106.376 132.891Z" fill="#CFABE2"/>
<path d="M105.782 133.36C106.537 134.837 107.246 135.984 107.365 135.923C107.485 135.861 106.97 134.615 106.215 133.139C105.461 131.663 104.752 130.515 104.632 130.577C104.513 130.638 105.027 131.884 105.782 133.36Z" fill="#CFABE2"/>
<g opacity="0.5">
<path opacity="0.5" d="M97.4561 140.757L93.6034 133.444L93.6502 133.373C95.8228 130.062 101.685 128.937 105.565 128.192C106.233 128.064 106.864 127.943 107.403 127.824C111.014 127.033 112.562 123.384 112.515 123.048L112.78 122.936L117.066 130.757L117.012 130.831C113.728 135.341 108.533 137.236 105.082 137.489C101.86 137.725 97.632 140.634 97.5899 140.664L97.4561 140.757ZM93.9391 133.462L97.5603 140.334C98.3252 139.822 102.051 137.421 105.061 137.201C108.431 136.954 113.496 135.112 116.724 130.735L112.722 123.432C112.617 123.737 112.443 124.073 112.391 124.17C111.986 124.929 110.435 127.458 107.466 128.108C106.923 128.227 106.29 128.349 105.619 128.478C101.816 129.207 96.0827 130.307 93.9391 133.462Z" fill="white"/>
</g>
<path d="M77.1033 106.349C77.1033 106.349 71.6841 110.623 64.1562 107.095C59.4972 104.909 49.908 101.976 47.7354 105.255L46.4122 116.548C46.4122 116.548 53.2634 116.512 59.4238 119.755C65.4776 122.944 75.9477 120.75 75.9477 120.75L77.1033 106.349Z" fill="#CFABE2"/>
<g opacity="0.4">
<path opacity="0.4" d="M60.0241 118.238C56.533 116.991 55.5847 113.061 56.9889 110.601C58.3925 108.14 62.649 107.926 65.1088 109.328C67.5697 110.734 68.4251 113.866 67.0215 116.327C65.6179 118.787 62.6922 119.192 60.0241 118.238Z" fill="white"/>
</g>
<path d="M59.7376 116.091C59.7749 116.012 59.9921 116.037 60.3479 116.111C60.7019 116.179 61.2051 116.304 61.78 116.288C62.0594 116.279 62.3625 116.223 62.6336 116.099C62.8994 115.981 63.1345 115.773 63.2144 115.554C63.315 115.322 63.2937 115.001 63.154 114.794C63.038 114.598 62.742 114.439 62.2903 114.316C62.0683 114.253 61.8214 114.195 61.5592 114.109C61.2975 114.022 61.0116 113.907 60.7422 113.708C60.6072 113.606 60.4835 113.486 60.3769 113.349C60.2692 113.211 60.1798 113.05 60.1247 112.883C60.0093 112.549 60.0123 112.205 60.0898 111.901C60.1697 111.596 60.3231 111.324 60.5314 111.11C60.7475 110.891 60.9784 110.758 61.2146 110.668C61.6841 110.49 62.1227 110.493 62.4957 110.539C62.874 110.591 63.1795 110.701 63.437 110.814C63.6915 110.925 63.8958 111.044 64.0532 111.147C64.3729 111.36 64.5221 111.517 64.4884 111.592C64.4546 111.671 64.235 111.659 63.8739 111.587C63.5169 111.525 63.0042 111.384 62.4418 111.4C62.163 111.411 61.8617 111.466 61.6184 111.596C61.3703 111.731 61.2288 111.907 61.1868 112.155C61.1678 112.274 61.1803 112.392 61.2223 112.485C61.2424 112.535 61.2697 112.574 61.3058 112.616C61.3448 112.661 61.3904 112.701 61.4473 112.74C61.6728 112.904 62.1097 113.002 62.6259 113.143C62.8852 113.218 63.1658 113.308 63.4476 113.47C63.5891 113.552 63.7247 113.65 63.852 113.768C63.9787 113.888 64.0953 114.027 64.1788 114.177C64.531 114.787 64.5085 115.487 64.232 116.034C63.9384 116.609 63.434 116.903 62.9853 117.048C62.5306 117.193 62.102 117.199 61.7273 117.151C60.9861 117.04 60.4847 116.756 60.1638 116.548C59.8435 116.333 59.7009 116.165 59.7376 116.091Z" fill="#CFABE2"/>
<path d="M62.4141 113.881C62.1124 116.146 62.0026 118.001 62.1689 118.023C62.3351 118.045 62.7145 116.227 63.0162 113.961C63.3179 111.695 63.4277 109.841 63.2615 109.819C63.0952 109.797 62.7159 111.615 62.4141 113.881Z" fill="#CFABE2"/>
<path d="M61.4669 113.936C61.1922 115.993 61.1048 117.678 61.2717 117.7C61.4386 117.722 61.7966 116.073 62.0713 114.017C62.346 111.96 62.4334 110.275 62.2665 110.253C62.0996 110.23 61.7416 111.879 61.4669 113.936Z" fill="#CFABE2"/>
<g opacity="0.5">
<path opacity="0.5" d="M47.6294 115.618L48.8726 105.348L48.9715 105.309C53.566 103.448 60.4 106.466 64.9229 108.463C65.702 108.807 66.4378 109.132 67.0772 109.393C71.3567 111.152 75.5487 108.499 75.7399 108.119L76.0922 108.193L74.9324 119.293L74.8247 119.331C68.2328 121.634 61.5372 119.884 57.8059 117.687C54.3219 115.635 47.8988 115.617 47.8342 115.618H47.6294ZM49.2059 105.605L48.0379 115.257C49.1893 115.274 54.7346 115.457 57.9882 117.375C61.6332 119.521 68.1564 121.232 74.595 119.028L75.6783 108.661C75.3527 108.901 74.9342 109.122 74.8128 109.184C73.855 109.677 70.4581 111.174 66.9387 109.729C66.2957 109.464 65.5575 109.139 64.7761 108.794C60.3426 106.837 53.6589 103.886 49.2059 105.605Z" fill="white"/>
</g>
<path d="M120.547 33.7825C120.547 33.7825 121.307 39.8221 115.213 43.8992C111.44 46.4223 104.857 52.3269 106.343 55.4615L114.269 61.6053C114.269 61.6053 117.363 56.4146 122.618 53.2403C127.784 50.1211 130.896 41.2156 130.896 41.2156L120.547 33.7825Z" fill="#CFABE2"/>
<g opacity="0.4">
<path opacity="0.4" d="M121.746 52.0966C119.214 54.1644 115.814 53.0905 114.595 50.9096C113.376 48.7287 115.153 45.4165 117.333 44.1981C119.515 42.9798 122.27 43.7606 123.489 45.9416C124.708 48.1225 123.681 50.5159 121.746 52.0966Z" fill="white"/>
</g>
<path d="M119.994 51.3353C119.952 51.2713 120.069 51.118 120.287 50.883C120.499 50.6468 120.822 50.3236 121.073 49.8825C121.194 49.667 121.289 49.4131 121.319 49.152C121.35 48.8974 121.301 48.6257 121.171 48.4647C121.042 48.2829 120.789 48.1533 120.57 48.1639C120.369 48.1622 120.114 48.3131 119.816 48.5985C119.667 48.737 119.511 48.8974 119.326 49.0555C119.142 49.2135 118.925 49.3775 118.652 49.49C118.513 49.5451 118.366 49.5841 118.214 49.6019C118.06 49.6203 117.898 49.6143 117.747 49.58C117.443 49.5155 117.184 49.3562 116.99 49.1591C116.796 48.9602 116.661 48.7204 116.593 48.4653C116.526 48.203 116.532 47.968 116.571 47.7483C116.65 47.3126 116.852 46.9829 117.057 46.7224C117.268 46.4607 117.491 46.2796 117.693 46.1363C117.893 45.9948 118.076 45.8948 118.226 45.8232C118.532 45.6781 118.718 45.6379 118.759 45.6971C118.804 45.7586 118.695 45.9191 118.476 46.1588C118.266 46.4004 117.927 46.7236 117.682 47.1552C117.563 47.3712 117.468 47.624 117.455 47.8662C117.443 48.1154 117.512 48.3019 117.681 48.4463C117.762 48.515 117.856 48.5588 117.946 48.57C117.993 48.5777 118.034 48.5742 118.082 48.5665C118.134 48.557 118.185 48.5416 118.241 48.5168C118.467 48.4209 118.74 48.1355 119.081 47.8099C119.256 47.6477 119.452 47.4778 119.702 47.3381C119.829 47.2694 119.965 47.2114 120.111 47.1688C120.26 47.1279 120.418 47.1031 120.57 47.1084C121.19 47.1202 121.709 47.4565 121.996 47.9141C122.296 48.3978 122.289 48.9128 122.193 49.3177C122.096 49.7268 121.906 50.0542 121.699 50.3153C121.277 50.8244 120.834 51.073 120.531 51.221C120.224 51.3649 120.033 51.3963 119.994 51.3353Z" fill="#CFABE2"/>
<path d="M119.544 48.3089C121.118 49.5689 122.469 50.4968 122.561 50.3815C122.653 50.2661 121.452 49.1512 119.879 47.8912C118.305 46.6312 116.955 45.7033 116.862 45.8186C116.77 45.934 117.971 47.0489 119.544 48.3089Z" fill="#CFABE2"/>
<path d="M119.158 49.0448C120.586 50.1891 121.819 51.0228 121.912 50.9069C122.005 50.7911 120.922 49.7696 119.494 48.6253C118.066 47.481 116.833 46.6473 116.74 46.7632C116.647 46.879 117.73 47.9005 119.158 49.0448Z" fill="#CFABE2"/>
<g opacity="0.5">
<path opacity="0.5" d="M114.121 60.2626L106.932 54.6463L106.947 54.5534C107.635 50.2365 113.027 46.4501 116.595 43.9442C117.209 43.5126 117.79 43.1053 118.279 42.7418C121.556 40.3105 121.462 35.9368 121.263 35.6194L121.479 35.3868L129.334 41.3192L129.313 41.4181C128.049 47.4446 123.678 51.7041 120.319 53.5209C117.182 55.2176 114.243 60.0596 114.214 60.1087L114.121 60.2626ZM107.278 54.5114L114.035 59.7902C114.573 58.9283 117.237 54.8245 120.167 53.2409C123.447 51.4661 127.712 47.3191 128.98 41.4524L121.645 35.9125C121.677 36.2677 121.654 36.6845 121.645 36.804C121.582 37.7524 121.165 40.999 118.47 42.9987C117.978 43.364 117.395 43.7731 116.779 44.2064C113.282 46.6626 108.008 50.3662 107.278 54.5114Z" fill="white"/>
</g>
<path d="M255.616 251.995H224.442V258.74H255.616V251.995Z" fill="#263238"/>
<path d="M236.818 251.995L237.333 258.739H241.733L241.962 251.995H236.818Z" fill="#E0E0E0"/>
<path d="M248.051 251.995H216.877V258.74H248.051V251.995Z" fill="#455A64"/>
<path d="M247.953 253.053C247.953 253.138 241.018 253.207 232.465 253.207C223.909 253.207 216.974 253.138 216.974 253.053C216.974 252.967 223.909 252.898 232.465 252.898C241.018 252.898 247.953 252.967 247.953 253.053Z" fill="#263238"/>
<path d="M247.943 254.596C247.943 254.681 241.008 254.749 232.455 254.749C223.899 254.749 216.964 254.681 216.964 254.596C216.964 254.51 223.899 254.441 232.455 254.441C241.008 254.441 247.943 254.51 247.943 254.596Z" fill="#263238"/>
<path d="M247.943 256.139C247.943 256.224 241.008 256.293 232.455 256.293C223.899 256.293 216.964 256.224 216.964 256.139C216.964 256.054 223.899 255.984 232.455 255.984C241.008 255.984 247.943 256.054 247.943 256.139Z" fill="#263238"/>
<path d="M247.943 257.682C247.943 257.767 241.008 257.836 232.455 257.836C223.899 257.836 216.964 257.767 216.964 257.682C216.964 257.596 223.899 257.527 232.455 257.527C241.008 257.527 247.943 257.596 247.943 257.682Z" fill="#263238"/>
<path d="M229.254 251.995L229.768 258.739H234.169L234.398 251.995H229.254Z" fill="#E0E0E0"/>
<path d="M259.398 245.325H228.224V252.069H259.398V245.325Z" fill="#263238"/>
<path d="M240.6 245.325L241.115 252.069H245.515L245.744 245.325H240.6Z" fill="#E0E0E0"/>
<path d="M251.833 245.325H220.659V252.069H251.833V245.325Z" fill="#455A64"/>
<path d="M251.736 246.382C251.736 246.468 244.8 246.537 236.247 246.537C227.691 246.537 220.757 246.468 220.757 246.382C220.757 246.297 227.691 246.228 236.247 246.228C244.8 246.228 251.736 246.297 251.736 246.382Z" fill="#263238"/>
<path d="M251.725 247.925C251.725 248.011 244.79 248.079 236.237 248.079C227.68 248.079 220.747 248.011 220.747 247.925C220.747 247.84 227.68 247.771 236.237 247.771C244.79 247.772 251.725 247.84 251.725 247.925Z" fill="#263238"/>
<path d="M251.725 249.469C251.725 249.554 244.79 249.623 236.237 249.623C227.68 249.623 220.747 249.554 220.747 249.469C220.747 249.384 227.68 249.314 236.237 249.314C244.79 249.314 251.725 249.384 251.725 249.469Z" fill="#263238"/>
<path d="M251.725 251.012C251.725 251.097 244.79 251.166 236.237 251.166C227.68 251.166 220.747 251.097 220.747 251.012C220.747 250.926 227.68 250.857 236.237 250.857C244.79 250.858 251.725 250.927 251.725 251.012Z" fill="#263238"/>
<path d="M233.036 245.325L233.55 252.069H237.952L238.18 245.325H233.036Z" fill="#E0E0E0"/>
<path d="M257.281 265.409H226.107V272.154H257.281V265.409Z" fill="#263238"/>
<path d="M238.483 265.409L238.997 272.153H243.398L243.627 265.409H238.483Z" fill="#E0E0E0"/>
<path d="M249.716 265.408H218.542V272.153H249.716V265.408Z" fill="#455A64"/>
<path d="M249.619 266.466C249.619 266.552 242.683 266.621 234.13 266.621C225.574 266.621 218.64 266.552 218.64 266.466C218.64 266.381 225.574 266.312 234.13 266.312C242.683 266.312 249.619 266.381 249.619 266.466Z" fill="#263238"/>
<path d="M249.608 268.009C249.608 268.094 242.673 268.164 234.119 268.164C225.563 268.164 218.63 268.094 218.63 268.009C218.63 267.924 225.563 267.855 234.119 267.855C242.673 267.855 249.608 267.924 249.608 268.009Z" fill="#263238"/>
<path d="M249.608 269.552C249.608 269.638 242.673 269.707 234.119 269.707C225.563 269.707 218.63 269.638 218.63 269.552C218.63 269.467 225.563 269.398 234.119 269.398C242.673 269.398 249.608 269.467 249.608 269.552Z" fill="#263238"/>
<path d="M249.608 271.095C249.608 271.181 242.673 271.25 234.119 271.25C225.563 271.25 218.63 271.181 218.63 271.095C218.63 271.01 225.563 270.941 234.119 270.941C242.673 270.941 249.608 271.01 249.608 271.095Z" fill="#263238"/>
<path d="M230.919 265.409L231.433 272.153H235.834L236.062 265.409H230.919Z" fill="#E0E0E0"/>
<path d="M261.063 258.739H229.889V265.484H261.063V258.739Z" fill="#263238"/>
<path d="M242.265 258.739L242.78 265.484H247.181L247.409 258.739H242.265Z" fill="#E0E0E0"/>
<path d="M253.498 258.738H222.324V265.483H253.498V258.738Z" fill="#455A64"/>
<path d="M253.401 259.796C253.401 259.881 246.466 259.951 237.912 259.951C229.356 259.951 222.423 259.881 222.423 259.796C222.423 259.711 229.356 259.642 237.912 259.642C246.466 259.642 253.401 259.712 253.401 259.796Z" fill="#263238"/>
<path d="M253.39 261.34C253.39 261.425 246.455 261.494 237.902 261.494C229.346 261.494 222.412 261.425 222.412 261.34C222.412 261.254 229.346 261.185 237.902 261.185C246.455 261.185 253.39 261.254 253.39 261.34Z" fill="#263238"/>
<path d="M253.39 262.882C253.39 262.968 246.455 263.037 237.902 263.037C229.346 263.037 222.412 262.968 222.412 262.882C222.412 262.797 229.346 262.728 237.902 262.728C246.455 262.728 253.39 262.798 253.39 262.882Z" fill="#263238"/>
<path d="M253.39 264.426C253.39 264.512 246.455 264.58 237.902 264.58C229.346 264.58 222.412 264.512 222.412 264.426C222.412 264.34 229.346 264.272 237.902 264.272C246.455 264.272 253.39 264.34 253.39 264.426Z" fill="#263238"/>
<path d="M234.701 258.739L235.216 265.484H239.616L239.845 258.739H234.701Z" fill="#E0E0E0"/>
<path d="M236.309 258.666H205.135V265.411H236.309V258.666Z" fill="#CFABE2"/>
<path opacity="0.2" d="M236.309 258.666H205.135V265.411H236.309V258.666Z" fill="black"/>
<path d="M217.511 258.666L218.027 265.411H222.427L222.655 258.666H217.511Z" fill="#E0E0E0"/>
<path d="M232.886 265.409H201.712V272.154H232.886V265.409Z" fill="#CFABE2"/>
<path opacity="0.2" d="M232.886 265.409H201.712V272.154H232.886V265.409Z" fill="black"/>
<path d="M214.089 265.409L214.603 272.153H219.004L219.232 265.409H214.089Z" fill="#E0E0E0"/>
<path d="M225.322 265.409H194.148V272.154H225.322V265.409Z" fill="#CFABE2"/>
<g opacity="0.2">
<path opacity="0.2" d="M225.224 266.466C225.224 266.552 218.288 266.621 209.736 266.621C201.179 266.621 194.245 266.552 194.245 266.466C194.245 266.381 201.179 266.312 209.736 266.312C218.288 266.312 225.224 266.381 225.224 266.466Z" fill="black"/>
</g>
<g opacity="0.2">
<path opacity="0.2" d="M225.213 268.009C225.213 268.094 218.278 268.164 209.725 268.164C201.169 268.164 194.235 268.094 194.235 268.009C194.235 267.924 201.169 267.855 209.725 267.855C218.278 267.855 225.213 267.924 225.213 268.009Z" fill="black"/>
</g>
<g opacity="0.2">
<path opacity="0.2" d="M225.213 269.552C225.213 269.638 218.278 269.707 209.725 269.707C201.169 269.707 194.235 269.638 194.235 269.552C194.235 269.467 201.169 269.398 209.725 269.398C218.278 269.398 225.213 269.467 225.213 269.552Z" fill="black"/>
</g>
<g opacity="0.2">
<path opacity="0.2" d="M225.213 271.095C225.213 271.181 218.278 271.25 209.725 271.25C201.169 271.25 194.235 271.181 194.235 271.095C194.235 271.01 201.169 270.941 209.725 270.941C218.278 270.941 225.213 271.01 225.213 271.095Z" fill="black"/>
</g>
<path d="M206.525 265.409L207.038 272.153H211.439L211.668 265.409H206.525Z" fill="#E0E0E0"/>
<path d="M229.822 258.666H198.648V265.411H229.822V258.666Z" fill="#CFABE2"/>
<g opacity="0.2">
<path opacity="0.2" d="M229.724 259.723C229.724 259.809 222.789 259.878 214.236 259.878C205.68 259.878 198.746 259.809 198.746 259.723C198.746 259.638 205.68 259.57 214.236 259.57C222.789 259.57 229.724 259.639 229.724 259.723Z" fill="black"/>
</g>
<g opacity="0.2">
<path opacity="0.2" d="M229.714 261.267C229.714 261.353 222.779 261.421 214.226 261.421C205.67 261.421 198.736 261.353 198.736 261.267C198.736 261.182 205.67 261.113 214.226 261.113C222.779 261.113 229.714 261.182 229.714 261.267Z" fill="black"/>
</g>
<g opacity="0.2">
<path opacity="0.2" d="M229.714 262.81C229.714 262.895 222.779 262.964 214.226 262.964C205.67 262.964 198.736 262.895 198.736 262.81C198.736 262.724 205.67 262.656 214.226 262.656C222.779 262.656 229.714 262.725 229.714 262.81Z" fill="black"/>
</g>
<g opacity="0.2">
<path opacity="0.2" d="M229.714 264.353C229.714 264.438 222.779 264.507 214.226 264.507C205.67 264.507 198.736 264.438 198.736 264.353C198.736 264.267 205.67 264.198 214.226 264.198C222.779 264.199 229.714 264.268 229.714 264.353Z" fill="black"/>
</g>
<path d="M211.025 258.666L211.539 265.411H215.94L216.169 258.666H211.025Z" fill="#E0E0E0"/>
<path d="M88.7136 265.409H57.5394V272.154H88.7136V265.409Z" fill="#263238"/>
<path d="M69.9164 265.409L70.4308 272.153H74.8318L75.0603 265.409H69.9164Z" fill="#E0E0E0"/>
<path d="M81.149 265.408H49.9749V272.153H81.149V265.408Z" fill="#455A64"/>
<path d="M81.0519 266.466C81.0519 266.552 74.1166 266.621 65.5634 266.621C57.0072 266.621 50.0731 266.552 50.0731 266.466C50.0731 266.381 57.0072 266.312 65.5634 266.312C74.116 266.312 81.0519 266.381 81.0519 266.466Z" fill="#263238"/>
<path d="M81.0413 268.009C81.0413 268.094 74.106 268.164 65.5528 268.164C56.9966 268.164 50.0625 268.094 50.0625 268.009C50.0625 267.924 56.996 267.855 65.5528 267.855C74.106 267.855 81.0413 267.924 81.0413 268.009Z" fill="#263238"/>
<path d="M81.0413 269.552C81.0413 269.638 74.106 269.707 65.5528 269.707C56.9966 269.707 50.0625 269.638 50.0625 269.552C50.0625 269.467 56.996 269.398 65.5528 269.398C74.106 269.398 81.0413 269.467 81.0413 269.552Z" fill="#263238"/>
<path d="M81.0413 271.095C81.0413 271.181 74.106 271.25 65.5528 271.25C56.9966 271.25 50.0625 271.181 50.0625 271.095C50.0625 271.01 56.996 270.941 65.5528 270.941C74.106 270.941 81.0413 271.01 81.0413 271.095Z" fill="#263238"/>
<path d="M62.3518 265.409L62.8663 272.153H67.2672L67.4957 265.409H62.3518Z" fill="#F5F5F5"/>
<path d="M84.9212 258.739H53.7471V265.484H84.9212V258.739Z" fill="#263238"/>
<path d="M66.124 258.739L66.6385 265.484H71.0394L71.2679 258.739H66.124Z" fill="#E0E0E0"/>
<path d="M77.3566 258.738H46.1825V265.483H77.3566V258.738Z" fill="#455A64"/>
<path d="M77.2589 259.796C77.2589 259.881 70.3236 259.951 61.7704 259.951C53.2142 259.951 46.2802 259.881 46.2802 259.796C46.2802 259.711 53.2137 259.642 61.7704 259.642C70.3236 259.642 77.2589 259.712 77.2589 259.796Z" fill="#263238"/>
<path d="M61.7598 261.494C70.3145 261.494 77.2495 261.425 77.2495 261.34C77.2495 261.254 70.3145 261.185 61.7598 261.185C53.2051 261.185 46.2701 261.254 46.2701 261.34C46.2701 261.425 53.2051 261.494 61.7598 261.494Z" fill="#263238"/>
<path d="M61.7598 263.037C70.3145 263.037 77.2495 262.968 77.2495 262.882C77.2495 262.797 70.3145 262.728 61.7598 262.728C53.2051 262.728 46.2701 262.797 46.2701 262.882C46.2701 262.968 53.2051 263.037 61.7598 263.037Z" fill="#263238"/>
<path d="M61.7598 264.58C70.3145 264.58 77.2495 264.511 77.2495 264.426C77.2495 264.34 70.3145 264.271 61.7598 264.271C53.2051 264.271 46.2701 264.34 46.2701 264.426C46.2701 264.511 53.2051 264.58 61.7598 264.58Z" fill="#263238"/>
<path d="M58.5594 258.739L59.0739 265.484H63.4748L63.7033 258.739H58.5594Z" fill="#F5F5F5"/>
</svg>
